<?xml version="1.0" encoding="UTF-8"?>
<svg width="12px" height="12px" viewBox="0 0 12 12" version="1.1" xmlns="http://www.w3.org/2000/svg" xmlns:xlink="http://www.w3.org/1999/xlink">
    <!-- Generator: sketchtool 59.1 (101010) - https://sketch.com -->
    <title>AB362045-2EB7-4424-9BDD-1FB7A488A4B3@2x</title>
    <desc>Created with sketchtool.</desc>
    <g id="Page-1" stroke="none" stroke-width="1" fill="none" fill-rule="evenodd">
        <g id="Desktop-HD" transform="translate(-1271.000000, -87.000000)" fill="#5F5F5F" fill-rule="nonzero">
            <g id="settings-(7)" transform="translate(1271.000000, 87.000000)">
                <path d="M7.69225731,8.62533333 C7.56633918,8.54966082 7.43709942,8.47359064 7.30785965,8.39901754 C7.33824561,8.14007018 7.33831579,7.87812865 7.308,7.61969591 C7.43773099,7.54484211 7.56690058,7.46881871 7.69221053,7.39347368 C7.90320468,7.26669006 7.99115789,6.99918129 7.89674854,6.77118129 C7.89674854,6.77118129 7.89674854,6.77118129 7.89672515,6.77115789 L7.62138012,6.10640936 C7.52694737,5.87847953 7.2757193,5.7514386 7.03674854,5.81097076 C6.89473684,5.84631579 6.74963743,5.88390643 6.60505263,5.92269006 C6.44362573,5.71843275 6.25838596,5.53323977 6.05387135,5.3717193 C6.09265497,5.22711111 6.13026901,5.08194152 6.16563743,4.93988304 C6.22516959,4.70102924 6.09815205,4.4497076 5.87022222,4.35527485 L5.20547368,4.07992982 C4.97754386,3.98547368 4.70996491,4.07335673 4.5831345,4.28439766 C4.50760234,4.41010526 4.43150877,4.53934503 4.35684211,4.66879532 C4.09796491,4.63840936 3.83607018,4.63833918 3.57752047,4.66863158 C3.50261988,4.53878363 3.4265731,4.40959064 3.35132164,4.28439766 C3.22444444,4.07340351 2.95693567,3.98549708 2.72898246,4.07992982 L2.06423392,4.35527485 C1.83635088,4.44968421 1.70928655,4.70102924 1.76881871,4.93988304 C1.80425731,5.08222222 1.84182456,5.22734503 1.88053801,5.37157895 C1.67630409,5.53295906 1.49108772,5.71824561 1.32959064,5.92276023 C1.18465497,5.88385965 1.03948538,5.8462924 0.897707602,5.81097076 C0.658783626,5.75139181 0.407508772,5.87852632 0.313076023,6.10643275 L0.0377777778,6.77115789 C-0.0566081871,6.99911111 0.0313216374,7.26664327 0.242269006,7.3934269 C0.368,7.46898246 0.497239766,7.54505263 0.626666667,7.61974269 C0.596304094,7.87859649 0.596233918,8.14049123 0.626526316,8.39906433 C0.496982456,8.47380117 0.367812865,8.54984795 0.242222222,8.62530994 C0.0312748538,8.75211696 -0.0566549708,9.01962573 0.037754386,9.24760234 L0.313122807,9.91235088 C0.407532164,10.1402573 0.658736842,10.267345 0.897754386,10.2077895 C1.03960234,10.1724678 1.18472515,10.1349006 1.32940351,10.0960702 C1.49083041,10.3003041 1.67607018,10.4854737 1.8805848,10.6470175 C1.84175439,10.7917895 1.80416374,10.9369591 1.76881871,11.0788538 C1.70928655,11.3177076 1.83630409,11.5690526 2.06423392,11.663462 L2.72900585,11.9388304 C2.79076023,11.9643977 2.85539181,11.9766467 2.91934503,11.9766467 C3.09155556,11.9766467 3.2588538,11.8882105 3.3514152,11.734386 C3.42638596,11.6096374 3.50243275,11.4804444 3.5777076,11.3500117 C3.83653801,11.3803509 4.09850292,11.3803977 4.35702924,11.350152 C4.43139181,11.4790877 4.5074386,11.6082573 4.58322807,11.7344094 C4.71005848,11.9454035 4.97756725,12.0332865 5.20556725,11.9388772 L5.87031579,11.6635322 C6.09819883,11.5691228 6.22526316,11.3177778 6.16573099,11.078924 C6.1305731,10.9378012 6.09300585,10.7926784 6.0540117,10.6472281 C6.25819883,10.485848 6.4434386,10.3005848 6.60498246,10.0960702 C6.74949708,10.1348304 6.89466667,10.1723977 7.03679532,10.2078129 C7.27564912,10.2673918 7.52699415,10.1403509 7.6214269,9.91237427 L7.89677193,9.24760234 C7.9911345,9.01964912 7.90320468,8.75211696 7.69225731,8.62533333 Z M7.13721637,9.68032749 C7.00067836,9.64612865 6.86149708,9.60996491 6.72311111,9.57267836 C6.52718129,9.51997661 6.32042105,9.5888655 6.19635088,9.7482807 C6.05375439,9.9314386 5.88872515,10.0964912 5.70587135,10.2388772 C5.54664327,10.3629006 5.47784795,10.5695906 5.53059649,10.7654035 C5.56809357,10.9046784 5.60423392,11.0437661 5.63822222,11.179345 L5.02718129,11.4324211 C4.95450292,11.3111579 4.88173099,11.1872515 4.81059649,11.0636491 C4.70938012,10.887883 4.5145731,10.7904795 4.31431579,10.8152749 C4.08435088,10.8438363 3.85092398,10.8438129 3.62065497,10.8151579 C3.41983626,10.7902222 3.22519298,10.8876257 3.124,11.0634386 C3.052,11.1884444 2.97920468,11.3124211 2.90732164,11.4324211 L2.2962807,11.1792982 C2.33045614,11.0429942 2.36661988,10.9038363 2.40395322,10.7652398 C2.45670175,10.5693333 2.38776608,10.3625497 2.22835088,10.2384561 C2.04519298,10.095883 1.88016374,9.93087719 1.73775439,9.74804678 C1.61377778,9.58877193 1.40708772,9.52 1.21120468,9.57272515 C1.07265497,9.61003509 0.93354386,9.64619883 0.79728655,9.68035088 L0.544163743,9.06933333 C0.664888889,8.99695906 0.788842105,8.92418713 0.912959064,8.85272515 C1.08874854,8.75150877 1.18624561,8.55674854 1.16135673,8.35646784 C1.13274854,8.12647953 1.13281871,7.89307602 1.1614269,7.66278363 C1.18640936,7.46231579 1.08898246,7.26734503 0.913099415,7.16610526 C0.78902924,7.09466667 0.665052632,7.02187135 0.544163743,6.94938012 L0.797263158,6.33836257 C0.933403509,6.37249123 1.07253801,6.40865497 1.21134503,6.4460117 C1.40718129,6.49878363 1.61396491,6.42982456 1.73812865,6.27040936 C1.88070175,6.08725146 2.04573099,5.92219883 2.22853801,5.77983626 C2.38778947,5.65583626 2.4565848,5.44912281 2.40383626,5.25323977 C2.36664327,5.1151345 2.33047953,4.97604678 2.29621053,4.83934503 L2.90725146,4.58626901 C2.97939181,4.70664327 3.05218713,4.8305731 3.12383626,4.95504094 C3.22507602,5.13083041 3.42004678,5.22846784 3.62011696,5.2034152 C3.8499883,5.17480702 4.08336842,5.17480702 4.31384795,5.20353216 C4.51443275,5.22851462 4.70928655,5.13097076 4.81047953,4.95518129 C4.88189474,4.83111111 4.95471345,4.7071345 5.0271345,4.58626901 L5.63817544,4.83934503 C5.60397661,4.97578947 5.56781287,5.11494737 5.53050292,5.25345029 C5.47775439,5.44933333 5.54669006,5.65611696 5.70610526,5.78021053 C5.88923977,5.92278363 6.0542924,6.08778947 6.19670175,6.27061988 C6.32067836,6.42984795 6.52729825,6.49864327 6.72327485,6.44591813 C6.86173099,6.40863158 7.00081871,6.37246784 7.13716959,6.3382924 L7.39024561,6.94930994 C7.2697076,7.02156725 7.14577778,7.09433918 7.02147368,7.16591813 C6.84568421,7.2671345 6.74816374,7.46191813 6.77307602,7.66219883 C6.80168421,7.89207018 6.80163743,8.12549708 6.77295906,8.35592982 C6.74802339,8.55642105 6.84549708,8.75134503 7.02130994,8.8525614 C7.14519298,8.92388304 7.26916959,8.99667836 7.39024561,9.06923977 L7.13721637,9.68032749 Z" id="Shape"></path>
                <path d="M5.65525146,7.31019883 C5.65525146,7.31019883 5.65525146,7.31019883 5.65522807,7.31017544 C5.26973099,6.3794386 4.19894737,5.93585965 3.26807018,6.32138012 C2.33735673,6.70692398 1.89375439,7.77780117 2.27929825,8.70853801 C2.46603509,9.1594386 2.81723977,9.5105731 3.26809357,9.69735673 C3.49352047,9.79071345 3.73038596,9.83740351 3.96725146,9.83740351 C4.20411696,9.83740351 4.44098246,9.79071345 4.66645614,9.69735673 C5.59716959,9.31181287 6.04074854,8.24095906 5.65525146,7.31019883 Z M4.46128655,9.20205848 C4.14273684,9.3340117 3.79188304,9.3339883 3.47323977,9.20205848 C3.15469006,9.07010526 2.9065731,8.82196491 2.77459649,8.50339181 C2.50215205,7.84575439 2.81560234,7.08907602 3.47326316,6.81667836 C3.63431579,6.74996491 3.80123977,6.71838596 3.96559064,6.71838596 C4.47242105,6.71838596 4.95424561,7.01873684 5.15997661,7.51534503 C5.43237427,8.17298246 5.11892398,8.92963743 4.46128655,9.20205848 Z" id="Shape"></path>
                <path d="M11.6152749,2.36107602 C11.5227368,2.34722807 11.4276959,2.33377778 11.3319766,2.32100585 C11.2837427,2.16060819 11.2193216,2.00509942 11.1398363,1.85740351 C11.1984094,1.78079532 11.2561404,1.70404678 11.3119298,1.62865497 C11.4357895,1.4611462 11.4178713,1.22357895 11.2702924,1.07607018 L10.9005146,0.706339181 C10.7529357,0.558736842 10.5153684,0.540842105 10.3479064,0.664748538 C10.2722573,0.720725146 10.1955322,0.778432749 10.1191579,0.836795322 C9.97148538,0.757309942 9.816,0.692888889 9.65555556,0.644631579 C9.64276023,0.548912281 9.62935673,0.453871345 9.61550877,0.361356725 C9.58470175,0.155368421 9.40407018,0 9.19536842,0 L8.67242105,0 C8.4637193,0 8.28308772,0.155368421 8.2522807,0.361333333 C8.23845614,0.45380117 8.22502924,0.548865497 8.21223392,0.644608187 C8.05178947,0.692865497 7.8962807,0.75728655 7.74863158,0.83677193 C7.67230409,0.778385965 7.59553216,0.720654971 7.51990643,0.664725146 C7.35239766,0.540818713 7.11483041,0.55871345 6.96729825,0.706292398 L6.59756725,1.076 C6.44996491,1.22355556 6.43202339,1.4611462 6.55592982,1.62867836 C6.61167251,1.70404678 6.66940351,1.78081871 6.72795322,1.85740351 C6.64851462,2.00507602 6.58407018,2.1605614 6.53581287,2.32100585 C6.44011696,2.33380117 6.34505263,2.34722807 6.25253801,2.36107602 C6.04652632,2.39190643 5.89115789,2.57251462 5.89115789,2.78123977 L5.89115789,3.30416374 C5.89115789,3.5128655 6.04647953,3.69349708 6.25249123,3.72432749 C6.34502924,3.73817544 6.44007018,3.75162573 6.53578947,3.76439766 C6.58404678,3.92481871 6.64846784,4.08030409 6.72792982,4.228 C6.6694269,4.30453801 6.61169591,4.38126316 6.55583626,4.45674854 C6.432,4.62421053 6.44989474,4.86182456 6.59747368,5.00930994 L6.96725146,5.37908772 C7.11480702,5.52669006 7.35237427,5.5445614 7.51985965,5.42067836 C7.59550877,5.36474854 7.67223392,5.30699415 7.7485848,5.24865497 C7.89630409,5.32814035 8.05181287,5.3925614 8.21221053,5.44079532 C8.22495906,5.53649123 8.23840936,5.63155556 8.25225731,5.72409357 C8.28308772,5.93008187 8.4637193,6.08545029 8.67242105,6.08545029 L9.19536842,6.08545029 C9.40407018,6.08545029 9.58470175,5.93012865 9.61550877,5.72407018 C9.62933333,5.63153216 9.64276023,5.53649123 9.65555556,5.44077193 C9.81597661,5.3925614 9.97146199,5.32809357 10.1191579,5.24860819 C10.1954854,5.30699415 10.2722573,5.36472515 10.347883,5.42067836 C10.515345,5.5445848 10.7529591,5.52669006 10.9004912,5.37911111 L11.270269,5.00938012 C11.417848,4.86182456 11.4357661,4.62423392 11.3118596,4.45672515 C11.2560468,4.38126316 11.1983158,4.30449123 11.1398363,4.22802339 C11.2192749,4.08035088 11.2837193,3.92488889 11.3319766,3.76442105 C11.4276725,3.75162573 11.5227368,3.73819883 11.6152515,3.72435088 C11.8212632,3.69352047 11.9766316,3.51291228 11.9766316,3.30418713 L11.9766316,2.78126316 C11.9766316,2.57253801 11.8212632,2.39190643 11.6152749,2.36107602 Z M11.4673216,3.23139181 C11.3832982,3.24357895 11.2975673,3.2554152 11.2115556,3.26661988 C11.0414269,3.28881871 10.902152,3.40956725 10.8568187,3.57419883 C10.8133801,3.73183626 10.7503392,3.88395322 10.6694737,4.02631579 C10.5850058,4.17492398 10.5980351,4.35883041 10.7026667,4.49490058 C10.7554152,4.56348538 10.8077427,4.63251462 10.8586667,4.70072515 L10.5919064,4.96750877 C10.5234854,4.91644444 10.4544561,4.86414035 10.3860117,4.81150877 C10.2500117,4.70683041 10.0660585,4.69389474 9.9174269,4.77826901 C9.77504094,4.85915789 9.62292398,4.92219883 9.46538012,4.96563743 C9.30065497,5.01101754 9.17990643,5.1502924 9.15777778,5.32037427 C9.1465731,5.40638596 9.13476023,5.49214035 9.12254971,5.57616374 L8.74523977,5.57616374 C8.73305263,5.49214035 8.72123977,5.40640936 8.7100117,5.32046784 C8.68781287,5.15031579 8.56708772,5.01104094 8.40240936,4.96566082 C8.24481871,4.92224561 8.09274854,4.85920468 7.95031579,4.77831579 C7.80168421,4.69387135 7.61773099,4.7068538 7.48175439,4.81150877 C7.41328655,4.86416374 7.34430409,4.91644444 7.27583626,4.96750877 L7.00907602,4.70072515 C7.06,4.63244444 7.11230409,4.56346199 7.16512281,4.49480702 C7.26968421,4.35878363 7.28271345,4.17487719 7.19826901,4.02626901 C7.11740351,3.88390643 7.05436257,3.73176608 7.01092398,3.57417544 C6.96556725,3.40949708 6.82631579,3.28877193 6.65618713,3.2665731 C6.57017544,3.25534503 6.48442105,3.24355556 6.40039766,3.23132164 L6.40039766,2.85405848 C6.48442105,2.84187135 6.57015205,2.83003509 6.65616374,2.81883041 C6.8262924,2.79663158 6.96556725,2.67588304 7.01090058,2.51125146 C7.05433918,2.35363743 7.11735673,2.20152047 7.19824561,2.0591345 C7.28271345,1.91052632 7.26968421,1.72659649 7.16509942,1.5905731 C7.11225731,1.52189474 7.05995322,1.45288889 7.00907602,1.38472515 L7.27583626,1.11794152 C7.34425731,1.16900585 7.41326316,1.22130994 7.48168421,1.27391813 C7.61763743,1.37859649 7.80156725,1.39164912 7.95031579,1.30718129 C8.09265497,1.22631579 8.24479532,1.16327485 8.40236257,1.11981287 C8.56708772,1.07443275 8.68783626,0.935157895 8.70996491,0.765076023 C8.72119298,0.679064327 8.73302924,0.593333333 8.74521637,0.509309942 L9.12252632,0.509309942 C9.13471345,0.593309942 9.14652632,0.679040936 9.15773099,0.765005848 C9.17992982,0.935157895 9.30067836,1.07443275 9.46533333,1.11978947 C9.62294737,1.16322807 9.77508772,1.2262924 9.91745029,1.30715789 C10.0661053,1.39162573 10.2500351,1.37850292 10.3859883,1.27394152 C10.4544561,1.22130994 10.5234386,1.16900585 10.5919064,1.11794152 L10.8586667,1.38472515 C10.8077895,1.45291228 10.7554854,1.52194152 10.7026433,1.59064327 C10.5980585,1.72664327 10.5850526,1.91054971 10.6694503,2.05915789 C10.7503158,2.20156725 10.8133567,2.3537076 10.8567953,2.51127485 C10.902152,2.67595322 11.0414035,2.79667836 11.2115322,2.81887719 C11.2975439,2.83010526 11.3832982,2.84191813 11.4673216,2.85412865 L11.4673216,3.23139181 Z" id="Shape"></path>
                <path d="M8.93389474,1.95730994 C8.3354152,1.95730994 7.84849123,2.44421053 7.84849123,3.04271345 C7.84849123,3.64123977 8.33539181,4.12814035 8.93389474,4.12814035 C9.53239766,4.12814035 10.0192982,3.64123977 10.0192982,3.04271345 C10.0192982,2.44421053 9.53239766,1.95730994 8.93389474,1.95730994 Z M8.93389474,3.64563743 C8.60147368,3.64563743 8.33097076,3.37515789 8.33097076,3.04269006 C8.33097076,2.71022222 8.60145029,2.43976608 8.93389474,2.43976608 C9.26633918,2.43976608 9.53679532,2.71024561 9.53681871,3.04269006 C9.53681871,3.37515789 9.26633918,3.64563743 8.93389474,3.64563743 Z" id="Shape"></path>
            </g>
        </g>
    </g>
</svg>