<?xml version="1.0" encoding="UTF-8"?>
<svg width="34px" height="34px" viewBox="0 0 34 34" version="1.1" xmlns="http://www.w3.org/2000/svg" xmlns:xlink="http://www.w3.org/1999/xlink">
    <!-- Generator: sketchtool 59.1 (101010) - https://sketch.com -->
    <title>6395FF68-9013-4ACC-91E6-E8B55A4395D1@2x</title>
    <desc>Created with sketchtool.</desc>
    <g id="Page-1" stroke="none" stroke-width="1" fill="none" fill-rule="evenodd">
        <g id="Admin-Dashboard" transform="translate(-815.000000, -337.000000)">
            <g id="Group-5" transform="translate(750.000000, 296.000000)">
                <g id="Group-10" transform="translate(66.000000, 42.000000)">
                    <circle id="Oval-Copy-17" stroke="#4A90E2" fill="#F3F9FF" cx="16" cy="16" r="16"></circle>
                    <g id="champion" transform="translate(8.000000, 7.000000)" fill="#124D91" fill-rule="nonzero">
                        <path d="M7.09800284,10.0777962 C5.00599237,9.27512463 4.77109798,7.79077243 4.76224471,7.72382166 C4.73920149,7.54698929 4.57411565,7.42192879 4.39351515,7.44449122 C4.21291464,7.46705364 4.08518922,7.62869506 4.10823243,7.80552742 C4.11821591,7.88354445 4.38080033,9.72847176 6.85839927,10.6788777 C7.02628542,10.7374404 7.21130847,10.6547455 7.27610835,10.4921853 C7.34090824,10.3296251 7.26201691,10.1460726 7.09800284,10.0777962 L7.09800284,10.0777962 Z" id="Path"></path>
                        <path d="M10.6758727,3.93219802 L8.85481932,3.67055145 L8.04047244,2.03620579 C7.98688872,1.92859885 7.87625702,1.86046512 7.75511468,1.86046512 C7.63397233,1.86046512 7.52334063,1.92859885 7.46975691,2.03620579 L6.65522822,3.67055145 L4.83417479,3.93219802 C4.71431568,3.94943779 4.61473368,4.03258034 4.57730264,4.14666455 C4.5398716,4.26074876 4.57108386,4.38598696 4.65781478,4.46971695 L5.97560584,5.7413949 L5.66415771,7.53834678 C5.64367665,7.65656896 5.69273699,7.7760557 5.79071106,7.84656816 C5.88868513,7.91708062 6.01858151,7.92638999 6.12578457,7.8705821 L7.75502377,7.02243666 L9.38389934,7.8705821 C9.49112838,7.92659615 9.62117851,7.91739193 9.71927629,7.846846 C9.81737407,7.77630007 9.86647139,7.6566724 9.84588983,7.53834678 L9.53444169,5.7413949 L10.8522328,4.4693568 C10.9388205,4.38557148 10.969939,4.26039881 10.9325275,4.14637436 C10.8951161,4.03234991 10.7956489,3.94920575 10.6758727,3.93183787 L10.6758727,3.93219802 Z M8.97027149,5.4062784 C8.89552584,5.47880875 8.86154039,5.5830874 8.87936427,5.68521201 L9.10990498,7.01559387 L7.90356617,6.38749805 C7.81088259,6.33912056 7.70007402,6.33912056 7.60739044,6.38749805 L6.40105163,7.01559387 L6.63141053,5.68521201 C6.64929895,5.58308289 6.61530399,5.47877502 6.54050331,5.4062784 L5.56452339,4.46413467 L6.9130411,4.27001561 C7.01672376,4.25509552 7.10634468,4.19057757 7.15267253,4.09750535 L7.75502377,2.88723241 L8.35810227,4.09768542 C8.40441951,4.19068938 8.49394897,4.25519042 8.59755188,4.27019568 L9.9462514,4.46431475 L8.97027149,5.4062784 Z" id="Shape"></path>
                        <path d="M15.8720578,2.00394619 C15.7916356,1.62736145 15.4653868,1.35829299 15.0873503,1.3567713 L13.1417683,1.3567713 L13.1417683,0.313901345 C13.1417683,0.140538419 13.0039163,0 12.8338673,0 L3.13164492,0 C2.96159593,0 2.82374399,0.140538419 2.82374399,0.313901345 L2.82374399,1.3567713 L0.878161953,1.3567713 C0.500072379,1.35831152 0.173805362,1.62746956 0.0934544231,2.00412556 C-0.177884802,3.62894214 0.14637365,5.29874866 1.00448931,6.69560538 C1.58963485,7.5958937 2.38124506,8.33717597 3.3107553,8.85524664 C3.93934985,10.2179632 5.1084506,11.2424682 6.52436136,11.6713901 L6.52436136,12.9201794 C6.52436136,13.0935423 6.6622133,13.2340807 6.83226229,13.2340807 L6.95049625,13.2340807 L6.95049625,15.1569507 L5.02198073,15.1569507 C4.85193174,15.1569507 4.71407979,15.2974891 4.71407979,15.470852 L4.71407979,17.4686996 C3.63094484,17.6260793 2.82565571,18.5706984 2.82374399,19.6860987 C2.82374399,19.8594616 2.96159593,20 3.13164492,20 L12.8338673,20 C13.0039163,20 13.1417683,19.8594616 13.1417683,19.6860987 C13.1398566,18.5706984 12.3345674,17.6260793 11.2514325,17.4686996 L11.2514325,15.470852 C11.2514325,15.2974891 11.1135805,15.1569507 10.9435315,15.1569507 L9.01501602,15.1569507 L9.01501602,13.2346188 L9.13324998,13.2346188 C9.30329897,13.2346188 9.44115091,13.0940804 9.44115091,12.9207175 L9.44115091,11.6717489 C10.8570617,11.2428269 12.0261624,10.218322 12.654757,8.85560538 C13.5842446,8.33757019 14.3758052,7.59627784 14.960847,6.69596413 C15.8199785,5.29931782 16.1443673,3.6289711 15.8720578,2.00394619 Z M13.1417683,2.99246637 L14.3658065,2.99246637 C14.4141508,4.25320837 13.9745392,5.48281698 13.1417683,6.4161435 L13.1417683,2.99246637 Z M1.59988175,2.99246637 L2.82409587,2.99246637 L2.82409587,6.41632287 C1.99106748,5.4831214 1.55125275,4.25347462 1.59952986,2.99264574 L1.59988175,2.99246637 Z M1.521411,6.3535426 C0.747361176,5.09841463 0.453624307,3.59670267 0.696236485,2.13488789 C0.714892646,2.04729813 0.79077267,1.98470987 0.878689783,1.98439462 L2.82374399,1.98439462 L2.82374399,2.36466368 L1.30887138,2.36466368 C1.14902249,2.36462266 1.01572743,2.48929489 1.0020261,2.65165919 C0.834451597,4.42713187 1.53274753,6.17330235 2.87019304,7.3232287 C2.89498362,7.51521115 2.93022671,7.70563965 2.97575908,7.89363229 C2.40142941,7.47668694 1.9081467,6.95450976 1.52105911,6.35372197 L1.521411,6.3535426 Z M12.4958801,19.3721973 L3.46998407,19.3721973 C3.61787611,18.6169951 4.26765226,18.072905 5.02303639,18.0717489 L10.9424759,18.0717489 C11.6979924,18.0727343 12.3479619,18.616863 12.4958801,19.3721973 L12.4958801,19.3721973 Z M10.6356306,17.4439462 L5.32988167,17.4439462 L5.32988167,15.7847534 L10.6356306,15.7847534 L10.6356306,17.4439462 Z M8.39921415,15.1569507 L7.56629813,15.1569507 L7.56629813,13.2346188 L8.39921415,13.2346188 L8.39921415,15.1569507 Z M8.82534904,12.6068161 L7.14016323,12.6068161 L7.14016323,11.8157848 C7.69802151,11.910856 8.26749076,11.910856 8.82534904,11.8157848 L8.82534904,12.6068161 Z M7.98275614,11.2593722 C5.47488477,11.2564071 3.44255145,9.18454762 3.43954586,6.62780269 L3.43954586,0.627802691 L12.5259664,0.627802691 L12.5259664,6.62780269 C12.5229608,9.18454762 10.4906275,11.2564071 7.98275614,11.2593722 Z M14.4444532,6.35372197 C14.0574005,6.95442934 13.5641795,7.47654356 12.9899291,7.89345291 C13.0354612,7.7054602 13.0707042,7.51503172 13.0954952,7.32304933 C14.9988508,5.70044843 15.0379102,3.52286996 14.9636621,2.65147982 C14.9500473,2.48914365 14.8168068,2.36445093 14.6569928,2.3644843 L13.1421202,2.3644843 L13.1421202,1.98457399 L15.0873503,1.98457399 C15.1752439,1.98495666 15.2510877,2.04751505 15.2698036,2.13506726 C15.5131867,3.59691632 15.2193284,5.09892839 14.4444532,6.35372197 L14.4444532,6.35372197 Z" id="Shape"></path>
                    </g>
                </g>
            </g>
        </g>
    </g>
</svg>