<?xml version="1.0" encoding="UTF-8"?>
<svg width="71px" height="71px" viewBox="0 0 71 71" version="1.1" xmlns="http://www.w3.org/2000/svg" xmlns:xlink="http://www.w3.org/1999/xlink">
    <!-- Generator: sketchtool 59.1 (101010) - https://sketch.com -->
    <title>00DD2F27-F8CB-44DE-AF4C-441826CFE74E@2x</title>
    <desc>Created with sketchtool.</desc>
    <g id="Page-1" stroke="none" stroke-width="1" fill="none" fill-rule="evenodd">
        <g id="Admin-Dashboard" transform="translate(-1282.000000, -142.000000)">
            <g id="Group-9" transform="translate(1282.000000, 142.000000)">
                <g id="Group-2-Copy-2" fill="#C88334">
                    <ellipse id="Oval" cx="35.5" cy="35.9573015" rx="35.5" ry="35"></ellipse>
                </g>
                <g id="telephone-of-old-design" transform="translate(18.000000, 19.000000)" fill="#FFFFFF" fill-rule="nonzero">
                    <path d="M30.5647142,18.5297293 C28.140825,17.9484153 25.0416648,16.4295326 23.9193395,14.5437288 C23.2909623,13.4941638 23.225311,12.3102032 23.7328063,11.2990369 C23.7609426,11.2446388 23.8099206,11.1625082 23.8463935,11.0985103 C23.8172152,10.8755844 23.8682773,10.5801276 24.0256321,10.1950737 C24.037095,10.1694746 24.0381371,10.1662747 24.0464738,10.148142 L11.5904342,10.148142 C11.5966867,10.1630748 11.5966867,10.1630748 11.6050234,10.1822742 C11.6050234,10.1822742 11.6060655,10.1833408 11.6060655,10.1844074 C11.8853442,10.6302592 12.129192,11.0291793 12.2594526,11.2862374 C12.7752846,12.3112699 12.7085912,13.4941638 12.0822982,14.5447954 C10.9568466,16.4327325 7.85872854,17.9505486 5.43275512,18.5318625 L4.7626946,30.0333458 C4.68974866,31.2951704 5.49736438,32.3255361 6.55820671,32.3255361 L29.4403047,32.3255361 C30.5011471,32.3255361 31.3077207,31.2941038 31.2337327,30.0333458 L30.5647142,18.5297293 Z M14.2592134,26.4505319 L12.1104345,26.4505319 C11.7144423,26.4505319 11.3934802,26.1209429 11.3934802,25.7166897 C11.3934802,25.3124365 11.7144423,24.9828475 12.1104345,24.9828475 L14.2592134,24.9828475 C14.6541635,24.9828475 14.9761677,25.3124365 14.9761677,25.7166897 C14.9761677,26.1209429 14.6541635,26.4505319 14.2592134,26.4505319 Z M14.2592134,23.6538251 L12.1104345,23.6538251 C11.7144423,23.6538251 11.3934802,23.3253027 11.3934802,22.9210495 C11.3934802,22.5135965 11.7144423,22.1872073 12.1104345,22.1872073 L14.2592134,22.1872073 C14.6541635,22.1872073 14.9761677,22.5135965 14.9761677,22.9210495 C14.9761677,23.3253027 14.6541635,23.6538251 14.2592134,23.6538251 Z M14.2592134,20.8571183 L12.1104345,20.8571183 C11.7144423,20.8571183 11.3934802,20.528596 11.3934802,20.1232761 C11.3934802,19.7190229 11.7144423,19.3894339 12.1104345,19.3894339 L14.2592134,19.3894339 C14.6541635,19.3894339 14.9761677,19.7190229 14.9761677,20.1232761 C14.9761677,20.5275293 14.6541635,20.8571183 14.2592134,20.8571183 Z M19.0746872,26.4505319 L16.9269505,26.4505319 C16.5309582,26.4505319 16.2099961,26.1209429 16.2099961,25.7166897 C16.2099961,25.3124365 16.5320003,24.9828475 16.9269505,24.9828475 L19.0757293,24.9828475 C19.4706795,24.9828475 19.7926837,25.3124365 19.7926837,25.7166897 C19.7905995,26.1209429 19.4696374,26.4505319 19.0746872,26.4505319 Z M19.0746872,23.6538251 L16.9269505,23.6538251 C16.5309582,23.6538251 16.2099961,23.3253027 16.2099961,22.9210495 C16.2099961,22.5135965 16.5320003,22.1872073 16.9269505,22.1872073 L19.0757293,22.1872073 C19.4706795,22.1872073 19.7926837,22.5135965 19.7926837,22.9210495 C19.7905995,23.3253027 19.4696374,23.6538251 19.0746872,23.6538251 Z M19.0746872,20.8571183 L16.9269505,20.8571183 C16.5309582,20.8571183 16.2099961,20.528596 16.2099961,20.1232761 C16.2099961,19.7190229 16.5320003,19.3894339 16.9269505,19.3894339 L19.0757293,19.3894339 C19.4706795,19.3894339 19.7926837,19.7190229 19.7926837,20.1232761 C19.7905995,20.5275293 19.4696374,20.8571183 19.0746872,20.8571183 Z M23.889119,26.4505319 L21.7403401,26.4505319 C21.34539,26.4505319 21.0244279,26.1209429 21.0244279,25.7166897 C21.0244279,25.3124365 21.34539,24.9828475 21.7403401,24.9828475 L23.889119,24.9828475 C24.2861533,24.9828475 24.6060733,25.3124365 24.6060733,25.7166897 C24.6060733,26.1209429 24.2871954,26.4505319 23.889119,26.4505319 Z M23.889119,23.6538251 L21.7403401,23.6538251 C21.34539,23.6538251 21.0244279,23.3253027 21.0244279,22.9210495 C21.0244279,22.5135965 21.34539,22.1872073 21.7403401,22.1872073 L23.889119,22.1872073 C24.2861533,22.1872073 24.6060733,22.5135965 24.6060733,22.9210495 C24.6060733,23.3253027 24.2871954,23.6538251 23.889119,23.6538251 Z M23.889119,20.8571183 L21.7403401,20.8571183 C21.34539,20.8571183 21.0244279,20.528596 21.0244279,20.1232761 C21.0244279,19.7190229 21.34539,19.3894339 21.7403401,19.3894339 L23.889119,19.3894339 C24.2861533,19.3894339 24.6060733,19.7190229 24.6060733,20.1232761 C24.6060733,20.5275293 24.2871954,20.8571183 23.889119,20.8571183 Z M35.8189058,11.8899506 C35.7740961,12.1203429 35.772012,12.3603349 35.6834348,12.5789943 C35.1655186,13.8610849 34.1942956,14.9223828 33.4794254,16.1042101 C32.5571804,17.6124265 24.7196606,14.3613349 25.7294408,12.348602 C26.1098017,11.6040934 27.5937305,9.54762866 27.7052335,8.72098955 C27.8073579,7.98288082 26.8528082,7.40583339 25.9712044,7.33223584 C23.6452712,7.13917561 20.6742874,7.31410311 18.2055885,7.33010258 L18.2055885,7.33223584 C18.1399372,7.33223584 18.0669912,7.33116921 17.9992557,7.33116921 C17.9325623,7.33116921 17.8596164,7.33223584 17.793965,7.33223584 L17.793965,7.33010258 C15.3252661,7.31410311 12.3542824,7.14024224 10.0283491,7.33223584 C9.14674535,7.40583339 8.19219567,7.98288082 8.2932779,8.72098955 C8.40582306,9.54762866 9.88870972,11.6040934 10.2690707,12.348602 C11.280935,14.3613349 3.44341524,17.6124265 2.52117019,16.1042101 C1.80421585,14.9223828 0.835076988,13.8610849 0.316118758,12.5789943 C0.228583634,12.3603349 0.226499465,12.1203429 0.181689818,11.8899506 C-0.9687718,6.6314592 3.46217277,1.2663047 10.1346417,0.715923049 C12.6825391,0.504730089 15.2366889,0.385267405 17.793965,0.338335636 L17.793965,0.325536062 C17.8627426,0.326602693 17.9304781,0.330869218 17.9992557,0.331935849 C18.0669912,0.330869218 18.1357688,0.326602693 18.2055885,0.325536062 L18.2055885,0.338335636 C20.7607804,0.385267405 23.3149303,0.504730089 25.8649118,0.715923049 C32.5363387,1.26523807 36.9672832,6.63252583 35.8189058,11.8899506 Z" id="Shape"></path>
                </g>
            </g>
        </g>
    </g>
</svg>