<?xml version="1.0" encoding="UTF-8"?>
<svg width="71px" height="71px" viewBox="0 0 71 71" version="1.1" xmlns="http://www.w3.org/2000/svg" xmlns:xlink="http://www.w3.org/1999/xlink">
    <!-- Generator: sketchtool 59.1 (101010) - https://sketch.com -->
    <title>14E2DE89-C449-4BD6-8C0B-48BDF1ADBDFA@2x</title>
    <desc>Created with sketchtool.</desc>
    <g id="Page-1" stroke="none" stroke-width="1" fill="none" fill-rule="evenodd">
        <g id="Admin-Dashboard" transform="translate(-851.000000, -148.000000)">
            <g id="Group-8" transform="translate(851.000000, 149.000000)">
                <g id="Group-2-Copy" fill="#3478C8">
                    <ellipse id="Oval" cx="35.5" cy="34.9573015" rx="35.5" ry="35"></ellipse>
                </g>
                <g id="phone-book" transform="translate(22.000000, 21.000000)" fill="#FFFFFF" fill-rule="nonzero">
                    <path d="M4.70420241,4.50733794 C4.70420241,5.16375943 4.19930279,5.69545598 3.5756984,5.69545598 L1.13028296,5.69545598 C0.504899612,5.69464818 0,5.16472879 0,4.50733794 L0,4.50733794 C0,3.85172426 0.504899612,3.32018927 1.13028296,3.32018927 L3.57472807,3.32018927 C4.19849418,3.32018927 4.70420241,3.85188582 4.70420241,4.50733794 L4.70420241,4.50733794 Z M4.70420241,11.1410239 C4.70420241,10.4854102 4.19930279,9.95209808 3.5756984,9.95209808 L1.13028296,9.95209808 C0.504899612,9.95209808 0,10.4837946 0,11.1410239 L0,11.1410239 C0,11.7966376 0.504899612,12.329142 1.13028296,12.329142 L3.57472807,12.329142 C4.19849418,12.3273648 4.70420241,11.7966376 4.70420241,11.1410239 L4.70420241,11.1410239 Z M4.70420241,17.7719634 C4.70420241,17.1163497 4.19930279,16.5838453 3.5756984,16.5838453 L1.13028296,16.5838453 C0.504899612,16.5846531 0,17.1145725 0,17.7719634 L0,17.7719634 C0,18.4275771 0.504899612,18.9608892 1.13028296,18.9608892 L3.57472807,18.9608892 C4.19849418,18.9608892 4.70420241,18.4293542 4.70420241,17.7719634 L4.70420241,17.7719634 Z M4.70420241,24.4038722 C4.70420241,23.7492279 4.19930279,23.2175313 3.5756984,23.2175313 L1.13028296,23.2175313 C0.504899612,23.2183391 0,23.7482585 0,24.4038722 L0,24.4038722 C0,25.0611015 0.504899612,25.592798 1.13028296,25.592798 L3.57472807,25.592798 C4.19849418,25.592798 4.70420241,25.0611015 4.70420241,24.4038722 L4.70420241,24.4038722 Z M27,1.25511927 L27,27.6602914 C27,28.3755211 26.419414,28.9573015 25.7024953,28.9573015 L3.67321745,28.9573015 C2.9554902,28.9573015 2.37409555,28.3772982 2.37409555,27.6602914 L2.37409555,26.5293659 L3.57391945,26.5293659 C4.68835354,26.5293659 5.59529685,25.5768035 5.59529685,24.4062956 C5.59529685,23.236757 4.68835354,22.2841946 3.57391945,22.2841946 L2.37409555,22.2841946 L2.37409555,19.8958415 L3.57391945,19.8958415 C4.68835354,19.8958415 5.59529685,18.9432791 5.59529685,17.7727712 C5.59529685,16.6022633 4.68835354,15.651478 3.57391945,15.651478 L2.37409555,15.651478 L2.37409555,13.2640942 L3.57391945,13.2640942 C4.68835354,13.2640942 5.59529685,12.3115318 5.59529685,11.1410239 C5.59529685,9.97051601 4.68835354,9.0179536 3.57391945,9.0179536 L2.37409555,9.0179536 L2.37409555,6.63040827 L3.57391945,6.63040827 C4.68835354,6.63040827 5.59529685,5.67784586 5.59529685,4.50733794 C5.59529685,3.33683003 4.68835354,2.38604479 3.57391945,2.38604479 L2.37409555,2.38604479 L2.37409555,1.25511927 C2.37409555,0.538112487 2.95468159,-0.0426985482 3.67321745,-0.0426985482 L25.7033039,-0.0426985482 C26.419414,-0.0426985482 27,0.537304683 27,1.25511927 Z M12.2786669,10.9713851 C12.3093943,10.5865473 12.5556986,10.1708514 12.8715439,10.2139881 C13.2268496,10.264072 14.1048445,10.9107998 14.4214984,11.0768843 C15.2834827,11.5189146 16.6725226,8.09350277 16.0277325,7.69024704 C15.5228329,7.37827316 15.070655,6.95385296 14.5209581,6.72621381 C14.4286142,6.68840859 14.3265669,6.68840859 14.2271072,6.66740569 C11.9796409,6.16479007 9.68656859,8.10238861 9.45255523,11.0180762 C9.36101993,12.1323609 9.31007715,13.2482613 9.2880828,14.365131 L9.28274594,14.365131 C9.28452489,14.3958276 9.28630385,14.4249085 9.28630385,14.4565744 C9.28630385,14.4882403 9.28452489,14.5145748 9.28274594,14.5480178 L9.2880828,14.5480178 C9.30748958,15.6648876 9.36021132,16.7809495 9.45255523,17.8950727 C9.68656859,20.8089831 11.9796409,22.7465816 14.2271072,22.243966 C14.3265669,22.2245787 14.4286142,22.2237709 14.5209581,22.1867735 C15.070655,21.9591343 15.5228329,21.5356835 16.0277325,21.2219325 C16.6715523,20.8194845 15.2836444,17.3958499 14.4214984,17.8352952 C14.1056531,18.0013797 13.22782,18.6506925 12.8715439,18.6999685 C12.5574776,18.7431053 12.3093943,18.3256322 12.2786669,17.9416022 C12.1960264,16.925708 12.2699339,15.626113 12.276888,14.5488256 L12.2786669,14.5488256 C12.2786669,14.5181291 12.2786669,14.4882403 12.2786669,14.4573822 C12.2786669,14.4266857 12.2786669,14.3958276 12.2786669,14.3659388 L12.276888,14.3659388 C12.2697722,13.2868743 12.1960264,11.9880871 12.2786669,10.9713851 Z M17.8704059,17.3774319 C19.4835941,15.7658631 19.4835941,13.1471242 17.8704059,11.5355554 L17.0127881,12.3940894 C18.1535831,13.5321236 18.1535831,15.3836102 17.0127881,16.5197057 L17.8704059,17.3774319 Z M19.4017622,18.9038583 C21.8551021,16.4529811 21.8551021,12.4627527 19.3999832,10.0100984 L18.5423655,10.8668553 C20.525091,12.8475905 20.525091,16.0689511 18.5423655,18.048717 L19.4017622,18.9038583 Z M20.8821757,8.53117094 L20.024558,9.38712 C22.8217212,12.1824448 22.8217212,16.7316735 20.024558,19.5268367 L20.8821757,20.3835935 C24.1517322,17.1147341 24.1517322,11.7982532 20.8821757,8.53117094 Z" id="Shape"></path>
                </g>
            </g>
        </g>
    </g>
</svg>