<?xml version="1.0" encoding="UTF-8"?>
<svg width="71px" height="71px" viewBox="0 0 71 71" version="1.1" xmlns="http://www.w3.org/2000/svg" xmlns:xlink="http://www.w3.org/1999/xlink">
    <!-- Generator: sketchtool 59.1 (101010) - https://sketch.com -->
    <title>90257C03-1407-41C4-BEC5-32D0352C2708@2x</title>
    <desc>Created with sketchtool.</desc>
    <g id="Page-1" stroke="none" stroke-width="1" fill="none" fill-rule="evenodd">
        <g id="Admin-Dashboard" transform="translate(-417.000000, -148.000000)">
            <g id="Group-3" transform="translate(417.000000, 149.000000)">
                <g id="Group-2" fill="#74A53F">
                    <ellipse id="Oval" cx="35.5" cy="34.9573015" rx="35.5" ry="35"></ellipse>
                </g>
                <g id="handshake" transform="translate(19.000000, 18.000000)" fill="#FFFFFF" fill-rule="nonzero">
                    <path d="M16,-0.0426985482 C15.4472667,-0.0426985482 15,0.404568118 15,0.957301452 L15,3.95730145 C15,4.51003479 15.4472667,4.95730145 16,4.95730145 C16.5527333,4.95730145 17,4.51003479 17,3.95730145 L17,0.957301452 C17,0.404568118 16.5527333,-0.0426985482 16,-0.0426985482 Z" id="Path"></path>
                    <path d="M10.7070476,6.25027056 L8.70703089,4.25025389 C8.31636097,3.85965064 7.6835557,3.85965064 7.29295244,4.25025389 C6.90234919,4.64085715 6.90234919,5.27372909 7.29295244,5.66433234 L9.29296911,7.66434901 C9.68357236,8.05495227 10.3164443,8.05495227 10.7070476,7.66434901 C11.0976508,7.27374576 11.0976508,6.64087381 10.7070476,6.25027056 Z" id="Path"></path>
                    <path d="M25.7070476,4.25025389 C25.3164443,3.85965064 24.6835724,3.85965064 24.2929691,4.25025389 L22.2929524,6.25027056 C21.9023492,6.64087381 21.9023492,7.27374576 22.2929524,7.66434901 C22.6835557,8.05495227 23.3164276,8.05495227 23.7070309,7.66434901 L25.7070476,5.66433234 C26.0976508,5.27372909 26.0976508,4.64085715 25.7070476,4.25025389 Z" id="Path"></path>
                    <path d="M32.0163934,13.9573015 L29,13.9573015 L29,26.9573015 L32.0163934,26.9573015 C32.5600656,26.9573015 33,26.5419824 33,26.02873 L33,14.8858729 C33,14.3726205 32.5600656,13.9573015 32.0163934,13.9573015 Z" id="Path"></path>
                    <path d="M0.983606557,13.9573015 C0.439934426,13.9573015 0,14.3726205 0,14.8858729 L0,26.02873 C0,26.5419824 0.439934426,26.9573015 0.983606557,26.9573015 L4,26.9573015 L4,13.9573015 L0.983606557,13.9573015 Z" id="Path"></path>
                    <path d="M15.9504519,14.9573015 C15.1691826,14.9573015 14.4669894,15.3457848 14.1179072,15.9706459 L11,21.5529626 C11.5221209,21.7579292 12.074288,21.8618181 12.6384736,21.8618181 C14.1979393,21.8618181 15.6013698,21.0839348 16.3005583,19.8306681 L16.974754,18.6239681 L18.9573248,18.6239681 C19.4965174,18.6239681 20.0246475,18.8200126 20.4057562,19.1610737 L28,25.9573015 L28,14.9573015 L15.9504519,14.9573015 Z" id="Path"></path>
                    <path d="M18.99321,21.0999067 L18.3034936,21.0999067 L18.2465434,21.2170046 C17.3147554,23.1305497 15.4976079,24.4815656 13.4210275,24.6558619 C11.8931032,24.7842374 10.8342622,24.3328633 9.57872585,23.7464282 C9.06814632,23.5080454 8.84600082,22.8816322 9.09681874,22.3664418 L12.5674312,15.2367709 C13.2358405,13.863605 14.6025812,12.9961754 16.0974928,12.9961754 L20.3544924,12.9961754 C20.6277353,12.3746919 20.7965475,11.6962126 20.7965475,10.9702594 C20.7965475,10.4103638 20.3553473,9.95730145 19.810111,9.95730145 L12.1517468,9.95730145 C11.0305631,9.95730145 10.0057213,10.607688 9.50428278,11.6374611 L8.62227702,13.4489676 C8.45510892,13.7922253 8.11353884,14.0091333 7.73974517,14.0091333 L6,14.0091333 L6,28.1905449 L10.523732,28.1905449 L13.3183066,31.0602549 C14.1283683,31.8920959 15.2951254,32.1547222 16.3016852,31.8091009 L24.7259186,29.089714 C25.2293958,28.9441857 25.6538266,28.6597471 26,28.2950147 L18.99321,21.0999067 Z" id="Path"></path>
                </g>
            </g>
        </g>
    </g>
</svg>