<svg height="511pt" viewBox="-46 1 511 511.999" width="511pt" xmlns="http://www.w3.org/2000/svg"><path d="m415.519531 75.855469-71.445312-71.445313c-.070313-.070312-.132813-.125-.191407-.171875-2.804687-2.710937-6.546874-4.238281-10.453124-4.238281h-266.4375c-8.316407 0-15.058594 6.742188-15.058594 15.054688v305.875c-30.710938 17.679687-51.433594 50.839843-51.433594 88.75 0 56.417968 45.898438 102.320312 102.320312 102.320312 36.304688 0 68.25-19.007812 86.414063-47.589844h215.640625c8.316406 0 15.054688-6.742187 15.054688-15.058594v-362.847656c0-3.992187-1.585938-7.824218-4.410157-10.648437zm-67.035156-24.449219 19.929687 19.929688-19.929687-.0625zm-245.664063 430.480469c-39.816406 0-72.207031-32.390625-72.207031-72.207031 0-39.816407 32.390625-72.210938 72.207031-72.210938 39.816407 0 72.207032 32.394531 72.207032 72.210938 0 39.816406-32.390625 72.207031-72.207032 72.207031zm99.320313-47.589844c1.957031-7.886719 3-16.132813 3-24.617187 0-56.421876-45.902344-102.320313-102.320313-102.320313-7.117187 0-14.0625.730469-20.773437 2.121094v-279.367188h236.324219v56.167969c0 8.296875 6.714844 15.03125 15.011718 15.058594l56.4375.171875v332.785156zm0 0"/><path d="m154.636719 410.84375c-4.839844-6.765625-14.242188-8.324219-21.003907-3.484375l-15.757812 11.273437v-48.652343c0-8.316407-6.738281-15.054688-15.054688-15.054688-8.316406 0-15.054687 6.738281-15.054687 15.054688v47.949219l-13.960937-10.398438c-6.667969-4.96875-16.101563-3.589844-21.070313 3.078125-4.964844 6.667969-3.585937 16.101563 3.082031 21.070313l38.007813 28.3125c.023437.019531.046875.019531.070312.03125 2.5 1.847656 5.582031 2.949218 8.925781 2.949218 3.25 0 6.25-1.039062 8.710938-2.789062.015625-.011719.035156-.007813.050781-.019532l39.570313-28.316406c6.765625-4.835937 8.324218-14.242187 3.484375-21.003906zm0 0"/><path d="m142.300781 165.71875h112.082031c8.3125 0 15.054688-6.742188 15.054688-15.058594 0-8.3125-6.742188-15.054687-15.054688-15.054687h-112.082031c-8.3125 0-15.054687 6.742187-15.054687 15.054687 0 8.316406 6.738281 15.058594 15.054687 15.058594zm0 0"/><path d="m323.640625 195.828125h-181.339844c-8.3125 0-15.054687 6.742187-15.054687 15.058594 0 8.3125 6.742187 15.054687 15.054687 15.054687h181.339844c8.3125 0 15.054687-6.742187 15.054687-15.054687 0-8.316407-6.742187-15.058594-15.054687-15.058594zm0 0"/><path d="m323.640625 256.054688h-181.339844c-8.3125 0-15.054687 6.742187-15.054687 15.054687 0 8.316406 6.742187 15.058594 15.054687 15.058594h181.339844c8.3125 0 15.054687-6.742188 15.054687-15.058594 0-8.3125-6.742187-15.054687-15.054687-15.054687zm0 0"/></svg>