<?xml version="1.0" encoding="UTF-8"?>
<svg width="16px" height="16px" viewBox="0 0 16 16" version="1.1" xmlns="http://www.w3.org/2000/svg" xmlns:xlink="http://www.w3.org/1999/xlink">
    <!-- Generator: sketchtool 58 (101010) - https://sketch.com -->
    <title>BB52FDBE-ED56-4FEB-946F-84E4FAE1F9C7@svg</title>
    <desc>Created with sketchtool.</desc>
    <g id="Page-1" stroke="none" stroke-width="1" fill="none" fill-rule="evenodd" opacity="0.65">
        <g id="Retail-Contacts-View" transform="translate(-1261.000000, -545.000000)">
            <g id="Group-129-Copy" transform="translate(1260.000000, 544.000000)">
                <rect id="Rectangle-44" x="0" y="0.299678198" width="18" height="17"></rect>
                <g id="edit" transform="translate(1.000000, 1.299678)" fill="#000000" fill-rule="nonzero">
                    <path d="M15.1171875,13.6796875 L0.6328125,13.6796875 C0.283007813,13.6796875 0,13.9469727 0,14.2773438 C0,14.6077148 0.283007813,14.875 0.6328125,14.875 L15.1171875,14.875 C15.4669922,14.875 15.75,14.6077148 15.75,14.2773438 C15.75,13.9469727 15.4669922,13.6796875 15.1171875,13.6796875 Z M4.078125,11.7207031 L8.21777344,10.0655273 C8.28457031,10.0389648 8.34433594,10.0007813 8.39707031,9.95263672 L15.3791016,3.35849609 C15.8730469,2.89199219 15.8765625,2.13164063 15.3826172,1.66513672 L13.9886719,0.348632813 C13.4947266,-0.117871094 12.6896484,-0.114550781 12.1957031,0.351953125 L5.21367188,6.94609375 C5.16269531,6.99423828 5.12226563,7.05234375 5.09414063,7.11542969 L3.33984375,11.0234375 C3.24140625,11.2425781 3.30996094,11.4633789 3.459375,11.6061523 C3.60878906,11.7489258 3.84433594,11.8136719 4.078125,11.7207031 Z M13.0904297,1.19697266 L13.0939453,1.19365234 L14.4861328,2.50849609 L14.4826172,2.51181641 L13.3927734,3.54111328 L12.0005859,2.22626953 L13.0904297,1.19697266 Z M6.20507813,7.69980469 L11.1058594,3.07128906 L12.4980469,4.38613281 L7.59726563,9.01464844 L5.18203125,9.98085938 L6.20507813,7.69980469 Z" id="Shape"></path>
                </g>
            </g>
        </g>
    </g>
</svg>