<?xml version="1.0" encoding="UTF-8"?>
<svg width="23px" height="31px" viewBox="0 0 23 31" version="1.1" xmlns="http://www.w3.org/2000/svg" xmlns:xlink="http://www.w3.org/1999/xlink">
    <!-- Generator: sketchtool 59.1 (101010) - https://sketch.com -->
    <title>4986EBE5-84C0-448A-B648-F9BDBA127A2B@2x</title>
    <desc>Created with sketchtool.</desc>
    <defs>
        <polygon id="path-1" points="1.7120554e-06 0.0147388527 21.6406605 0.0147388527 21.6406605 20.644488 1.7120554e-06 20.644488"></polygon>
    </defs>
    <g id="Page-1" stroke="none" stroke-width="1" fill="none" fill-rule="evenodd">
        <g id="Admin-Dashboard" transform="translate(-664.000000, -714.000000)">
            <g id="Group-16-3" transform="translate(664.000000, 714.000000)">
                <path d="M18.1071524,16 C17.0748273,19.3696857 14.2880158,21.063223 11.7567568,19.8603764 L15.4050524,31 L17.4634044,25.6596618 L21.7567568,27.143608 L18.1071524,16 Z" id="Fill-1" fill="#555658"></path>
                <path d="M8.98836242,19.7237355 C7.62629253,19.0243509 6.60397886,17.6530119 6.05104615,16 L2.75675676,27.5195028 L7.17068508,25.6761883 L9.53497753,31 L12.7567568,19.7341708 C11.5844142,20.3290664 10.2510296,20.3720817 8.98836242,19.7237355" id="Fill-3" fill="#555658"></path>
                <path d="M12.5527704,22 C15.1591036,21.9434032 17.6755651,21.1647814 19.7567568,19.8023341 L18.4125693,16 C17.3305954,19.2718771 14.4097546,20.9162834 11.7567568,19.748325 L12.5527704,22 Z" id="Fill-5" fill="#404042"></path>
                <path d="M8.95529699,19.6130136 C7.58127573,18.9343983 6.54999186,17.6038611 5.99223621,16 L4.75675676,20.1552956 C5.47283361,20.5738943 6.24540658,20.9329523 7.069538,21.2222659 C8.70993502,21.7981316 10.3998523,22.043342 12.0519045,21.9937687 L12.7567568,19.6231386 C11.5741276,20.2003456 10.2290721,20.2420818 8.95529699,19.6130136" id="Fill-7" fill="#404042"></path>
                <g id="Group-11" transform="translate(0.756757, 0.000000)">
                    <mask id="mask-2" fill="white">
                        <use xlink:href="#path-1"></use>
                    </mask>
                    <g id="Clip-10"></g>
                    <path d="M20.9215046,14.0195751 C23.0592721,8.70145889 20.2698211,2.7382247 14.691086,0.700305897 C9.11235091,-1.33758641 2.85691784,1.3215247 0.719150368,6.63964094 C-1.41858931,11.9577572 1.37086163,17.9209914 6.94959673,19.9589102 C12.528304,21.996829 18.7837371,19.3376914 20.9215046,14.0195751" id="Fill-9" fill="#FEC628" mask="url(#mask-2)"></path>
                </g>
                <path d="M21.236984,12.7433241 C21.024187,12.846066 20.86792,12.9523017 20.7357634,13.0927488 C20.8460911,12.7295643 20.933773,12.345525 20.9978515,11.9408191 C21.4591321,11.9894623 21.7918051,11.8886822 22.168981,11.5892445 C22.4955982,11.3301725 22.6486261,11.0952071 22.7567568,10.6870075 C22.2660986,10.6392512 21.9335101,10.7364569 21.5414624,11.0419952 C21.2987528,11.2311393 21.1501189,11.4056366 21.0401292,11.6461382 C21.0890824,11.2587396 21.1169671,10.8531199 21.1217272,10.4283655 C21.1221497,10.388806 21.1219243,10.3494883 21.1218962,10.31009 C21.5956263,10.2628443 21.9054282,10.0940713 22.2184693,9.7150576 C22.4853456,9.392212 22.5872797,9.12975381 22.6099818,8.70760624 C22.1204503,8.76506432 21.8148452,8.93071989 21.4934388,9.31317355 C21.285064,9.56085065 21.1744265,9.77114507 21.1179247,10.0479275 C21.1034754,9.57477174 21.0520154,9.11690771 20.9658545,8.67640473 C21.4006306,8.52867458 21.662099,8.2984929 21.8859934,7.87126601 C22.0814117,7.49856786 22.1278017,7.22049548 22.0641739,6.80256724 C21.5970347,6.96311661 21.331792,7.19007334 21.09511,7.63210818 C20.9663615,7.87266349 20.8996354,8.07269178 20.8820032,8.29776728 C20.7794213,7.88182776 20.6451804,7.48265805 20.4811958,7.10211249 C20.8560338,6.86918959 21.0573952,6.59138596 21.1859747,6.13865499 C21.3013723,5.73257848 21.2901902,5.45025991 21.1431055,5.05514827 C20.7187509,5.31166715 20.5053625,5.58973953 20.3637702,6.07275826 C20.2973821,6.29909687 20.2698072,6.48619843 20.2816089,6.67687433 C20.1023863,6.32441282 19.8967154,5.98971548 19.665892,5.67471729 C19.9777783,5.37030772 20.1156526,5.05754012 20.1490579,4.5924468 C20.1794213,4.17067547 20.111146,3.89725242 19.8869417,3.54188844 C19.5237645,3.88287446 19.3718633,4.2006945 19.3314727,4.70314363 C19.3129674,4.93308345 19.3233045,5.11857253 19.3707085,5.29857918 C19.1231824,5.00379075 18.8519966,4.72888958 18.5594044,4.47511192 C18.8096063,4.10601498 18.8831768,3.76803893 18.8206475,3.30055376 C18.7645682,2.88176553 18.6421854,2.62865973 18.3507198,2.32903386 C18.0648593,2.73978656 17.9807827,3.08249256 18.0433683,3.58287234 C18.0746612,3.83288754 18.1288533,4.02380531 18.2268441,4.20289822 C17.9155494,3.9627729 17.5828482,3.74498045 17.2306841,3.55113333 C17.4115967,3.12476644 17.4182158,2.77308429 17.2586251,2.31973521 C17.1186101,1.92164049 16.9475557,1.70021995 16.6014474,1.46907077 C16.405325,1.93136912 16.3928473,2.28509374 16.5557052,2.76093694 C16.6473586,3.02866256 16.7519685,3.21702724 16.9128266,3.38545089 C16.5444387,3.20350927 16.1566159,3.04669547 15.7512455,2.91667574 C15.8456592,2.45440427 15.7822004,2.10624271 15.531407,1.69221129 C15.3136528,1.33300424 15.1012502,1.15256759 14.7156808,1 C14.6178872,1.49401048 14.6775717,1.84262891 14.9334913,2.27324201 C15.0814774,2.52237035 15.2256329,2.68670905 15.4253043,2.81898626 C15.294049,2.78232919 15.1613291,2.74809084 15.0267502,2.71696995 L14.7047523,2.78754288 C14.9155212,2.83629356 15.1229947,2.89275727 15.3270037,2.95615466 C15.0015131,3.01484897 14.747875,3.16483659 14.4834209,3.44296272 C14.1951663,3.7464048 14.0755437,4.00077371 14.0239993,4.42001881 C14.5164319,4.39760532 14.8324867,4.25433637 15.1791866,3.89598931 C15.4385988,3.62783369 15.5648405,3.4002051 15.6353691,3.05846659 C15.9999827,3.18706196 16.3521469,3.33903831 16.6898053,3.51275628 C16.4069304,3.5238824 16.1566159,3.61834692 15.8775717,3.80937219 C15.5340547,4.04474069 15.3654226,4.26788121 15.2296889,4.66721218 C15.7158404,4.75003996 16.0541748,4.67694081 16.4661925,4.40015842 C16.761376,4.20203823 16.9295293,4.0139423 17.0648968,3.71783701 C17.3872609,3.90536857 17.694556,4.11353989 17.9848105,4.34073849 C17.7193424,4.30120582 17.4650001,4.34237784 17.1669436,4.46436204 C16.7831486,4.62114896 16.5726332,4.80373558 16.358766,5.1658451 C16.8175398,5.35012483 17.1633101,5.35055482 17.6225065,5.16713509 C17.9477717,5.03757223 18.1495837,4.89132018 18.340101,4.63611816 C18.6207789,4.88347278 18.8827261,5.14993529 19.1238303,5.43375885 C18.8709808,5.3373056 18.6127797,5.32287389 18.2949504,5.37888074 C17.8876365,5.45071678 17.6446734,5.58466021 17.3619394,5.89315473 C17.7731684,6.17122711 18.1113338,6.24515937 18.597767,6.1635947 C18.9440162,6.105626 19.1716286,6.00481906 19.4112117,5.7935034 C19.6378947,6.09560175 19.8421572,6.41484614 20.0216615,6.74957036 C19.7914296,6.59708339 19.5393687,6.52624172 19.2125262,6.51352999 C18.7994945,6.49743205 18.5345898,6.57647051 18.1951851,6.81818143 C18.5410681,7.17741536 18.8568131,7.32149055 19.3491331,7.34559715 C19.7009592,7.36247445 19.9447954,7.31173504 20.2234453,7.15451813 C20.379994,7.49461728 20.5120943,7.84879877 20.6171267,8.21566511 C20.4240462,8.02090426 20.1933073,7.8996188 19.8794776,7.81848413 C19.4786702,7.71493596 19.2034003,7.73605946 18.822422,7.90002192 C19.0877492,8.32512571 19.3671877,8.53351203 19.8439598,8.66113991 C20.1817873,8.7519226 20.4291162,8.75498632 20.730102,8.66304801 C20.808151,9.01666513 20.8618079,9.38073651 20.8892138,9.75397215 C20.7418474,9.53682469 20.5452179,9.3771353 20.2664554,9.23666132 C19.8955888,9.04990912 19.6220088,9.01228456 19.2159343,9.09172613 C19.3891011,9.56375312 19.6201499,9.82704442 20.0604466,10.0535443 C20.3669248,10.2112987 20.6051278,10.2677624 20.9101977,10.2449995 C20.9108737,10.3050645 20.9109019,10.3653444 20.9102259,10.4258393 C20.9066488,10.7437668 20.889918,11.0499501 20.8608784,11.3449804 C20.7608878,11.1010927 20.6010437,10.9029994 20.3568413,10.7064379 C20.031914,10.4448666 19.7720511,10.3497839 19.3586251,10.3413453 C19.4320549,10.8395482 19.6045175,11.1463496 19.9892701,11.4616166 C20.2623149,11.6853483 20.487505,11.7910196 20.8000109,11.8320573 C20.7357634,12.2558711 20.6444762,12.6547452 20.5280646,13.0294052 C20.4979829,12.7115314 20.3789237,12.4484819 20.1464385,12.1631265 C19.8817591,11.8381041 19.6469079,11.6897827 19.2442978,11.5934638 C19.2147795,12.096746 19.3212484,12.4335934 19.6333317,12.8236257 C19.8693659,13.118441 20.0793462,13.2706592 20.4100475,13.3782655 C20.2499781,13.8140116 20.0539401,14.2146326 19.8261305,14.5821708 C19.8904625,14.2184488 19.8332848,13.909578 19.6445138,13.5433029 C19.4516868,13.1693148 19.2521562,12.9740433 18.8778815,12.7944666 C18.7467108,13.2804147 18.7824539,13.6320162 19.008489,14.0803935 C19.1842753,14.4288238 19.3637514,14.6237459 19.6820032,14.8036182 C19.4397161,15.1599228 19.166108,15.4831446 18.8645588,15.7746006 C18.9766047,15.4578555 18.9760977,15.1587134 18.8731214,14.7865259 C18.7605404,14.3795625 18.6048931,14.1463171 18.2754029,13.8910882 C18.0481848,14.3385786 18.011653,14.6901801 18.141669,15.176612 C18.2388711,15.539474 18.3680421,15.7650601 18.6210887,15.9977949 C18.3468046,16.2366302 18.0526914,16.4523533 17.7407489,16.6454479 C17.8496964,16.4073382 17.8862563,16.1542055 17.8657231,15.8387773 C17.8383172,15.4166298 17.7335101,15.1554347 17.4631411,14.8355722 C17.1499874,15.2247714 17.0427862,15.561135 17.0710653,16.064471 C17.0902466,16.4036832 17.1575642,16.6384874 17.3175773,16.8879651 C16.9616671,17.0770285 16.5862376,17.2401847 16.1946687,17.3791 C16.3575548,17.1654194 16.4484195,16.9213435 16.4937392,16.5998685 C16.5526069,16.1810802 16.5032594,15.9034378 16.3037289,15.5332659 C15.9182439,15.8472429 15.7449363,16.1536143 15.6703799,16.651871 C15.6193424,16.9937439 15.6388617,17.2403729 15.7498091,17.5246802 C15.2592636,17.6718997 14.7464948,17.7837521 14.2176149,17.8632475 C14.6114089,17.6646704 14.835754,17.4055447 15.0025553,16.9658211 C15.1520342,16.5715694 15.1649062,16.2892508 15.0520436,15.8823143 C14.6074093,16.0999455 14.3712343,16.3585606 14.1889415,16.8267983 C14.0398288,17.2102463 14.0187885,17.4854969 14.110132,17.879211 C14.0851485,17.8827585 14.0599959,17.8859297 14.034956,17.8893428 C14.031238,17.8893159 14.0277172,17.8891815 14.0239993,17.8891815 C14.0240838,17.889719 14.0241683,17.8902296 14.0242809,17.8907671 C13.7356883,17.9295742 13.4426454,17.9592976 13.1459127,17.9796417 C12.8259709,18.0015983 12.5313225,18.0882155 12.2538275,18.2151446 C11.9780224,18.0896129 11.6852893,18.0039633 11.3676008,17.9821411 C11.0708399,17.9618238 10.7778534,17.9320735 10.4892326,17.8932665 C10.4893452,17.8927559 10.4894297,17.8922452 10.4895142,17.8917077 C10.4858526,17.8917077 10.48236,17.891869 10.4787265,17.891869 C10.4536303,17.8884828 10.4284496,17.8852847 10.4034097,17.8817641 C10.494725,17.4880231 10.4736002,17.2127725 10.3244875,16.8293514 C10.1421947,16.3611137 9.90610424,16.1024718 9.46138543,15.8848674 C9.34860729,16.2918039 9.36139482,16.5736656 9.51095824,16.9683473 C9.67775948,17.408044 9.90213278,17.6671697 10.2958423,17.8657737 C9.76696237,17.7862784 9.25424995,17.674399 8.76370446,17.5272333 C8.87462362,17.2429259 8.89419925,16.9962701 8.84302096,16.6543703 C8.76846458,16.1561405 8.59526957,15.8497691 8.20981281,15.5353621 C8.01031041,15.9059641 7.9609066,16.1836333 8.01977431,16.6023947 C8.065094,16.9238965 8.15595871,17.1679724 8.31887299,17.3816531 C7.92727596,17.2427378 7.55184642,17.0795547 7.19590801,16.8904913 C7.35586482,16.6410405 7.42321061,16.4061826 7.44233558,16.0669703 C7.47075544,15.5636612 7.36355424,15.2273245 7.05040055,14.8380984 C6.7800034,15.1579878 6.67508367,15.419156 6.64779046,15.8413304 C6.62725718,16.1568661 6.66381713,16.4099182 6.77284914,16.6480548 C6.46085027,16.4549333 6.16670887,16.2392102 5.8923966,16.000348 C6.1454996,15.76764 6.27461423,15.5420271 6.37173188,15.1791113 C6.501776,14.6927332 6.46521606,14.3411317 6.23811062,13.8935876 C5.90853593,14.1488433 5.75300124,14.3821156 5.64042026,14.789079 C5.53738768,15.1612934 5.53693702,15.4604355 5.64898284,15.7772343 C5.34743369,15.4857246 5.07376924,15.1624759 4.83148213,14.8061175 C5.14967761,14.6262453 5.32915371,14.43135 5.50502453,14.0829197 C5.73111597,13.6345693 5.76683093,13.2829678 5.63566015,12.796966 C5.26138543,12.9765964 5.0617422,13.171841 4.86888707,13.5458022 C4.68022873,13.9118086 4.623051,14.2208406 4.68732666,14.5846701 C4.45954523,14.2171319 4.26353546,13.8165378 4.10346599,13.3808185 C4.43416733,13.2732123 4.64411945,13.1209941 4.88006912,12.8261788 C5.19229333,12.4360658 5.29879037,12.0992991 5.26921568,11.5960169 C4.86663376,11.6923358 4.63178258,11.8406572 4.3671032,12.1656527 C4.13461799,12.451035 4.01553058,12.7141113 3.98547706,13.0319851 C3.86903729,12.6572982 3.77777826,12.2583973 3.71353077,11.8345566 C4.02600847,11.7935458 4.25119859,11.6879283 4.52424338,11.4641428 C4.90899598,11.1488759 5.08145866,10.8420744 5.15477572,10.3438715 C4.74146242,10.3522833 4.48159949,10.4473928 4.15670042,10.708991 C3.91244167,10.9055256 3.75259752,11.103592 3.65263508,11.3474798 C3.62362372,11.0524495 3.60686473,10.7462662 3.60331577,10.4283655 C3.60263977,10.3678706 3.60266794,10.3075907 3.60334393,10.2475258 C3.90841388,10.2702886 4.1465887,10.2138518 4.45309513,10.0560974 C4.89339181,9.82959752 5.12444054,9.56630622 5.29755105,9.09425235 C4.89153283,9.01483766 4.61795289,9.05243534 4.24705814,9.23918754 C3.96823925,9.3796884 3.77163799,9.53935091 3.62429971,9.7564715 C3.65173375,9.38323585 3.70536252,9.01919135 3.7834397,8.66557423 C4.08442552,8.75753941 4.33186708,8.75444882 4.66958184,8.66363926 C5.14635398,8.53560825 5.42579253,8.32767881 5.69100706,7.90257502 C5.31014142,7.73861256 5.03487149,7.71705906 4.63406405,7.82101035 C4.32017803,7.9021719 4.08949547,8.02348423 3.89638684,8.21824508 C4.00141923,7.85140562 4.1335195,7.49719725 4.29006818,7.1570981 C4.56877441,7.31428814 4.81246984,7.36502755 5.16429595,7.34815024 C5.65672859,7.32404365 5.97236093,7.17994158 6.31824394,6.82073453 C5.97900819,6.57899673 5.71404715,6.49955515 5.30107184,6.51602934 C4.97420113,6.52876794 4.72214029,6.59958274 4.49190839,6.75204283 C4.67141266,6.41731861 4.875647,6.09810109 5.10232994,5.79602962 C5.34188491,6.0073184 5.56952551,6.1081791 5.91574652,6.1661478 C6.40220789,6.24771247 6.74034515,6.17332334 7.15160231,5.89570783 C6.8688683,5.58718643 6.62579253,5.453243 6.21847866,5.38140696 C5.90070568,5.32515824 5.64258907,5.3396437 5.38982407,5.43612382 C5.63090003,5.15235401 5.89279093,4.88594525 6.17344064,4.63861751 C6.36395796,4.89381953 6.56576999,5.04009845 6.89092256,5.16968818 C7.35023155,5.35310792 7.6960019,5.35267792 8.15477572,5.16802195 C7.94090848,4.80623493 7.73039304,4.62370206 7.34662625,4.46691514 C7.04854157,4.34490406 6.79414292,4.30373205 6.52870305,4.34329158 C6.81892932,4.11609299 7.12625258,3.90789479 7.44864484,3.72036323 C7.58401241,4.01646852 7.75216564,4.20456445 8.04737736,4.40268464 C8.45936684,4.67949391 8.79772944,4.75259305 9.2838528,4.6697384 C9.14814724,4.27043431 8.97948702,4.04686379 8.63588548,3.81192529 C8.35692575,3.62087314 8.10658306,3.5264355 7.82373638,3.5152825 C8.16136665,3.34159141 8.51353077,3.18958818 8.87817259,3.06101968 C8.94864484,3.40270444 9.07497101,3.63038678 9.3343551,3.8985424 C9.68116761,4.25688947 9.99719427,4.40015842 10.4895424,4.42254503 C10.4379135,4.00292368 10.3183191,3.74850103 10.0300644,3.44551582 C9.76566672,3.16738969 9.51205673,3.01740207 9.186538,2.95870775 C9.39054701,2.89531037 9.59802049,2.83884665 9.8088176,2.79009597 L9.48681966,2.71952305 C9.35221258,2.75061706 9.21946448,2.78488228 9.0882092,2.82151248 C9.28788059,2.68928902 9.43200791,2.52492344 9.58007851,2.2757951 C9.83608264,1.84515513 9.89557001,1.4965367 9.79777638,1.00252622 C9.41220695,1.15506694 9.19991702,1.33553046 8.98219099,1.69473751 C8.7313413,2.10876893 8.66791064,2.45693049 8.76229614,2.91917509 C8.35689759,3.04922169 7.96907485,3.20606236 7.60065874,3.38800399 C7.76151687,3.21958033 7.86612677,3.03118878 7.95783647,2.76346316 C8.12072258,2.28761996 8.10821671,1.93392222 7.91209428,1.47159699 C7.56598594,1.70277304 7.39495974,1.92419358 7.25491655,2.32228831 C7.09532591,2.77563739 7.101945,3.12729266 7.28285759,3.55365955 C6.93058081,3.74756042 6.59782332,3.96537975 6.28644411,4.20561257 C6.38454757,4.02651966 6.43882417,3.83552126 6.47017334,3.58539856 C6.53275901,3.08504565 6.44871056,2.74190966 6.16282191,2.33158695 C5.87135632,2.63118595 5.74897345,2.88431862 5.69289421,3.30310686 C5.63036487,3.77067265 5.70393543,4.10870245 5.95422178,4.47755752 C5.66157321,4.73136205 5.39035924,5.00626322 5.14280502,5.30113227 C5.19020901,5.12109875 5.20057424,4.93560967 5.18206893,4.70569673 C5.14167836,4.20324759 4.98966446,3.88542756 4.62654363,3.54438779 C4.40239566,3.89980551 4.33412038,4.17320169 4.36439923,4.59497302 C4.39786088,5.06003946 4.53573526,5.37283394 4.84762146,5.67724351 C4.61679807,5.99218795 4.41112724,6.32691217 4.23190463,6.6793468 C4.24373451,6.48869778 4.21615963,6.30162309 4.1497715,6.07528448 C4.00817916,5.59226575 3.79481891,5.31422025 3.37040806,5.05770137 C3.22337961,5.452813 3.21219756,5.73513158 3.32753884,6.14120809 C3.45614649,6.59393905 3.65742336,6.87171581 4.03228957,7.10463871 C3.86833313,7.48507677 3.73409222,7.88419273 3.63153847,8.30005163 C3.61382182,8.07505676 3.54715202,7.87508222 3.41845988,7.63466127 C3.18174972,7.19262643 2.91650701,6.96566971 2.44925511,6.80509346 C2.38573995,7.22304858 2.43212996,7.50109408 2.62754823,7.87381911 C2.85141454,8.30099224 3.11279844,8.53117393 3.54765902,8.67890408 C3.4614981,9.11938018 3.41003814,9.57721734 3.39558879,10.0503462 C3.33908705,9.77364442 3.22844956,9.56335 3.02010292,9.31567289 C2.69858382,8.93327298 2.39309137,8.76759054 1.90355987,8.71013246 C1.92626197,9.13230691 2.02819606,9.39471134 2.29507241,9.7176107 C2.60811344,10.0966244 2.9179435,10.2649674 3.39167367,10.3126163 C3.39158917,10.3518533 3.39136384,10.3910366 3.3918145,10.4304886 C3.39654645,10.8554312 3.42445932,11.2612389 3.47344064,11.648745 C3.3634228,11.4080822 3.21473253,11.2333967 2.97207926,11.0444946 C2.58003157,10.7389831 2.24744308,10.6417774 1.75675676,10.6895337 C1.86488745,11.0977602 2.0179435,11.3327256 2.34453255,11.5917438 C2.72173657,11.8912353 3.05432506,11.9920154 3.51571836,11.9433453 C3.57979685,12.3481319 3.66753509,12.7322249 3.77789092,13.09549 C3.64564982,12.9549623 3.4893828,12.8486191 3.27655771,12.7458772 C2.83085309,12.5303154 2.48584323,12.5062625 2.01569019,12.6571101 C2.2042922,13.0336514 2.40173845,13.2305891 2.77398519,13.4147881 C3.18183421,13.6165633 3.51414104,13.6516885 3.92418704,13.5301881 C4.05285102,13.8781077 4.20331577,14.2054414 4.37335614,14.5131297 C4.24334018,14.4406218 4.09825521,14.3882699 3.92004659,14.345351 C3.44034515,14.2291449 3.09798293,14.2790243 2.66884013,14.5266477 C2.92980154,14.8545995 3.16313175,15.0054471 3.56447434,15.1064421 C3.98711071,15.2125434 4.3102353,15.1836262 4.66868052,14.9986478 C4.86860541,15.2982468 5.08906358,15.5764267 5.32794256,15.8339399 C5.19282849,15.7955091 5.04737736,15.7769118 4.87466118,15.7728806 C4.38205955,15.7614589 4.05713231,15.8827443 3.68758954,16.2165817 C4.00961564,16.4815392 4.26843641,16.5796049 4.68166522,16.593096 C5.11973676,16.6072052 5.43114414,16.5087901 5.74652298,16.2475144 C6.02660935,16.5012115 6.32660935,16.7313125 6.64429783,16.9381939 C6.4764826,16.9158341 6.30503391,16.9264228 6.09877159,16.9662511 C5.61439454,17.0596406 5.32126713,17.2476828 5.02777356,17.652523 C5.39669667,17.8435483 5.66974145,17.8845322 6.07666099,17.8097668 C6.52667507,17.7268853 6.81701401,17.5530329 7.08101739,17.2019152 C7.41163423,17.3871893 7.75819324,17.5502917 8.11827211,17.6917063 C7.98977713,17.7143886 7.85877535,17.7564206 7.7114934,17.8194417 C7.25675676,18.0142563 7.00826366,18.2602403 6.80332515,18.7187225 C7.20306227,18.8273499 7.47850119,18.8091558 7.86125399,18.6494395 C8.26499073,18.4807202 8.50995364,18.2626322 8.69385187,17.8961152 C8.98931708,17.9903647 9.29219005,18.0715531 9.60137229,18.1397611 C9.56120704,18.1658027 9.52030947,18.1942092 9.47820075,18.225142 C9.07787214,18.5192585 8.8898898,18.8163582 8.79116667,19.3103418 C9.20431098,19.3238866 9.46879319,19.242752 9.80650795,18.9988911 C10.0965089,18.7898598 10.2764638,18.5725242 10.386707,18.2837825 C10.7069868,18.3311895 11.0323928,18.3660997 11.361714,18.3887013 C11.5175586,18.3993706 11.6621647,18.4260571 11.7984618,18.4649448 C11.163451,18.8663182 10.602743,19.4253117 9.99896876,19.7916943 L10.4807545,19.9975007 C11.1533674,19.5896504 11.6258301,18.9960961 12.2544189,18.6531482 C12.8853738,18.995693 13.3584843,19.5911554 14.0326745,20 L14.5146011,19.7942205 C13.9090523,19.4268167 13.3468234,18.8656732 12.7095593,18.4640311 C12.84749,18.4242834 12.9938143,18.3969787 13.1517995,18.3861482 C13.4810925,18.3635466 13.8065267,18.3286633 14.1268065,18.2812294 C14.2370779,18.5700248 14.4170046,18.787441 14.7068929,18.9967948 C15.0447203,19.2402257 15.3090899,19.3213604 15.7224313,19.3078156 C15.6236237,18.8138051 15.4356414,18.5167323 15.0353128,18.2226158 C14.9931759,18.191683 14.9522501,18.1632764 14.9120567,18.1372618 C15.2212108,18.0690269 15.5240838,17.9878654 15.8195208,17.8936158 C16.0033627,18.2599984 16.2484383,18.4781671 16.6521469,18.6468864 C17.0348997,18.8066027 17.3104512,18.8247968 17.7100757,18.7161962 C17.5052499,18.2576872 17.2567568,18.0117301 16.8019919,17.8169424 C16.65471,17.7538944 16.5237364,17.7118623 16.3951851,17.689207 C16.7553203,17.5477655 17.1018511,17.384663 17.4325243,17.1993621 C17.6965277,17.5505336 17.9867258,17.7243859 18.4368244,17.8072137 C18.8437721,17.882006 19.116845,17.8409952 19.48574,17.6499968 C19.1921337,17.2451565 18.899119,17.0571144 18.4147138,16.9637248 C18.2084796,16.9239234 18.0370591,16.9133079 17.8693002,16.9356677 C18.1869323,16.7287863 18.4869605,16.4986853 18.7670187,16.2450151 C19.082313,16.5062908 19.3938049,16.604679 19.8317356,16.5905967 C20.2449926,16.5770518 20.5037852,16.4789861 20.8258113,16.2140555 C20.4564094,15.8802181 20.131454,15.7589058 19.6387397,15.7703275 C19.466108,15.7743856 19.3207132,15.792956 19.1856836,15.8313331 C19.4245626,15.5738736 19.6449926,15.2956937 19.8449175,14.9961484 C20.2033064,15.1810731 20.5264028,15.2099903 20.9489265,15.103889 C21.3503818,15.0029209 21.583712,14.8520464 21.8446734,14.5241214 C21.4155869,14.2764712 21.073112,14.2265918 20.5933543,14.3428248 C20.4152865,14.3857437 20.2702297,14.4380418 20.1402982,14.5105229 C20.3103386,14.2028614 20.460747,13.8755546 20.589411,13.5276887 C20.9993443,13.6491623 21.3317356,13.6140102 21.7395283,13.4122888 C22.1118032,13.228036 22.3091368,13.0310983 22.4978515,12.6545839 C22.0277266,12.5037094 21.6826604,12.527816 21.236984,12.7433241" id="Fill-12" fill="#FBDE64"></path>
                <polygon id="Fill-14" fill="#FEFEFE" points="13.2567694 3 13.3578299 4.51209516 14.7567568 4.14591372 13.4202935 4.71424009 14.1838024 6 13.2567694 4.83915693 12.3297111 6 13.0932453 4.71424009 11.7567568 4.14591372 13.1557089 4.51209516"></polygon>
            </g>
        </g>
    </g>
</svg>