<?xml version="1.0" encoding="UTF-8"?>
<svg width="17px" height="20px" viewBox="0 0 17 20" version="1.1" xmlns="http://www.w3.org/2000/svg" xmlns:xlink="http://www.w3.org/1999/xlink">
    <!-- Generator: sketchtool 59.1 (101010) - https://sketch.com -->
    <title>781ECF96-B4FA-4C59-ACCD-CEB2A3C021B7@2x</title>
    <desc>Created with sketchtool.</desc>
    <g id="Page-1" stroke="none" stroke-width="1" fill="none" fill-rule="evenodd">
        <g id="Deals-VIEW-UPDATED" transform="translate(-1336.000000, -229.000000)" fill="#000000">
            <g id="Group-13" transform="translate(1336.000000, 229.000000)">
                <path d="M5.45654451,20 C5.09821214,19.8898839 4.74536683,19.7735702 4.45949481,19.5098763 C4.0850904,19.1644432 3.87179547,18.742611 3.82229517,18.2373245 C3.8122161,18.1342637 3.8147456,18.0297216 3.8147456,17.9258422 C3.81443299,15.2500804 3.81443299,12.5743187 3.81443299,9.89855688 L3.81443299,9.69832106 L5.25188878,9.69832106 L5.25188878,9.95464785 C5.25188878,12.6239391 5.252706,15.2931914 5.25029325,17.9624826 C5.25009868,18.1603797 5.27220258,18.3477914 5.45389826,18.4565821 C5.54861818,18.5133357 5.66952811,18.5545757 5.77868562,18.5547706 C8.65756399,18.5599938 11.5364424,18.5593701 14.4152818,18.5583567 C14.7486695,18.5582397 14.9509903,18.3591733 14.9510681,18.0281624 C14.9521966,13.7417438 14.9522356,9.45532512 14.9509514,5.16890646 C14.9508735,4.8405852 14.7460621,4.64319485 14.4105342,4.64288302 C12.9321796,4.64144079 11.4538251,4.64222037 9.97550951,4.64222037 L9.76416035,4.64222037 C9.69310095,4.15318813 9.62538828,3.68695869 9.55483478,3.20120069 L9.75330297,3.20120069 C11.2834927,3.20120069 12.8139159,3.21550603 14.3438722,3.19605545 C15.3266789,3.18358212 16.1938681,3.82334668 16.3634222,4.82709842 C16.3663798,4.84452209 16.3820237,4.85980191 16.3917526,4.87609519 L16.3917526,18.3238971 C16.3793386,18.3593292 16.3631109,18.3939037 16.3551333,18.4302712 C16.2553543,18.8857814 16.0358719,19.265867 15.6742706,19.5669418 C15.3931852,19.8009336 15.0593695,19.9053976 14.7183933,20 L5.45654451,20 Z" id="Fill-1"></path>
                <path d="M4.54858563,8.11164469 C6.52045369,8.10026196 8.13621293,6.47853829 8.1219076,4.52501944 C8.10744593,2.55037533 6.49203846,0.951260752 4.52701039,0.966489671 C2.54455013,0.981835735 0.950717911,2.59036101 0.969948022,4.55641444 C0.989256304,6.5267632 2.59579134,8.12279295 4.54858563,8.11164469 L4.54858563,8.11164469 Z M4.92478444,0 C5.33975616,0.102541387 5.77384073,0.157716932 6.16629915,0.315902446 C7.77838434,0.965669652 8.76592088,2.15864068 9.02025082,3.87884469 C9.34993778,6.10906129 8.08387732,8.11119555 5.94667722,8.84807998 C4.19833965,9.45083278 2.09064917,8.80215893 0.970534306,7.32792148 C0.450578691,6.6435573 0.130624045,5.88398568 0.0328318963,5.03054145 C0.0270863144,4.98012982 0.011178479,4.9308506 0,4.88106375 L0,4.17819057 C0.0129764162,4.11504913 0.0286888237,4.05233722 0.038499307,3.9887272 C0.314326321,2.19843111 1.29099706,0.955946573 2.97585963,0.291497127 C3.34568749,0.145650942 3.75303752,0.0946535882 4.14307263,0 L4.92478444,0 Z" id="Fill-3"></path>
                <path d="M10.2054032,9.89634459 C9.35196633,9.89630713 8.49856859,9.89548321 7.6451317,9.89690722 C7.4190907,9.89724341 7.2557932,9.79912167 7.16114954,9.60920742 C7.07734801,9.44105223 7.10294642,9.2628976 7.24514676,9.14466465 C7.3498106,9.05759097 7.50481014,8.97834456 7.63796884,8.97752064 C9.35126179,8.96643513 11.064633,8.96830768 12.7780042,8.97167827 C13.0893733,8.97227749 13.302028,9.17398882 13.2989691,9.43981634 C13.2958436,9.70362151 13.0769655,9.89484654 12.7656747,9.89563302 C11.9122378,9.89776773 11.058801,9.89638204 10.2054032,9.89634459" id="Fill-5"></path>
                <path d="M10.2038535,11.8572261 C11.05278,11.8572636 11.901824,11.8508898 12.7505546,11.8636748 C12.8878562,11.8657744 13.0541541,11.9205885 13.1543874,12.0070089 C13.4262084,12.2412999 13.2930604,12.671977 12.9357785,12.7597471 C12.8549022,12.7796557 12.7677957,12.7824301 12.6835104,12.7825051 C11.0313854,12.7837424 9.37922117,12.7842673 7.72709616,12.7814553 C7.61820316,12.7812679 7.5012774,12.7726446 7.40210209,12.7345521 C7.18337568,12.6505313 7.07514882,12.4276005 7.1256573,12.2120557 C7.17314859,12.0093709 7.37357597,11.8594756 7.61788969,11.8585008 C8.3688556,11.8556139 9.11982152,11.8573011 9.87078743,11.8572261 L10.2038535,11.8572261 Z" id="Fill-7"></path>
                <path d="M10.2254718,14.8465616 C11.0879254,14.8465616 11.9503397,14.8444013 12.8127541,14.847926 C13.0546661,14.8489114 13.2490191,15.0085464 13.2898736,15.219498 C13.3317475,15.4357178 13.2273372,15.6384451 13.0117336,15.729102 C12.9369644,15.7605211 12.8474922,15.7710194 12.7647638,15.7711331 C11.0594605,15.773445 9.35419643,15.7739756 7.64893234,15.7718911 C7.32711487,15.7714742 7.11633383,15.5852334 7.11340206,15.3145134 C7.11045266,15.0367061 7.32684041,14.8471301 7.6577541,14.84641 C8.51365999,14.844515 9.36956588,14.8457657 10.2254718,14.8457657 L10.2254718,14.8465616 Z" id="Fill-9"></path>
                <path d="M4.99181048,4.10117806 L5.22493312,4.10117806 C5.88113017,4.10121674 6.53732722,4.09986322 7.19352428,4.10191283 C7.51145104,4.10287963 7.72852752,4.29411235 7.73191811,4.56841239 C7.73530869,4.84584485 7.52635385,5.0461268 7.2072049,5.04782837 C6.32139408,5.05262369 5.43546498,5.05297173 4.54965416,5.04775102 C4.20960972,5.04570141 4.0226937,4.8486679 4.02190519,4.51048183 C4.02013105,3.77030099 4.02024933,3.03008147 4.02190519,2.28990063 C4.02261485,1.98095054 4.2190324,1.7606752 4.49386716,1.75278613 C4.77284158,1.74478103 4.98668518,1.96772474 4.98995749,2.28761899 C4.9953982,2.81533622 4.99169221,3.34316946 4.99181048,3.87096403 C4.99181048,3.94010945 4.99181048,4.00929355 4.99181048,4.10117806" id="Fill-11"></path>
            </g>
        </g>
    </g>
</svg>