<?xml version="1.0" encoding="UTF-8"?>
<svg width="12px" height="12px" viewBox="0 0 12 12" version="1.1" xmlns="http://www.w3.org/2000/svg" xmlns:xlink="http://www.w3.org/1999/xlink">
    <!-- Generator: sketchtool 59.1 (101010) - https://sketch.com -->
    <title>0BF69226-BE63-422D-83B2-9798CF51450F@2x</title>
    <desc>Created with sketchtool.</desc>
    <g id="Page-1" stroke="none" stroke-width="1" fill="none" fill-rule="evenodd">
        <g id="Desktop-HD" transform="translate(-1271.000000, -111.000000)" fill="#5F5F5F" fill-rule="nonzero">
            <g id="logout" transform="translate(1271.000000, 111.000000)">
                <path d="M11.6023392,5.61421782 L6.86156798,5.61421782 C6.65497076,5.61421782 6.48729897,5.44654606 6.48729897,5.23994882 C6.48729897,5.0333516 6.65497076,4.86567981 6.86156798,4.86567981 L11.6023392,4.86567981 C11.8089364,4.86567981 11.9766082,5.0333516 11.9766082,5.23994882 C11.9766082,5.44654606 11.8089364,5.61421782 11.6023392,5.61421782 Z" id="Path"></path>
                <path d="M9.73099415,7.48556285 C9.63514255,7.48556285 9.53938232,7.44910454 9.46646564,7.37582236 C9.32026681,7.22953216 9.32026681,6.99250732 9.46646564,6.84630849 L11.0733735,5.23949195 L9.46646564,3.63258407 C9.32026681,3.48638524 9.32026681,3.24936037 9.46646564,3.10316154 C9.61275584,2.95687135 9.8497807,2.95687135 9.99597953,3.10316154 L11.8673246,4.97450657 C12.0135234,5.1207054 12.0135234,5.35773027 11.8673246,5.5039291 L9.99597953,7.37527413 C9.92260599,7.44910454 9.82684575,7.48556285 9.73099415,7.48556285 L9.73099415,7.48556285 Z" id="Path"></path>
                <path d="M3.99223319,11.9767909 C3.88541665,11.9767909 3.7840826,11.9618056 3.68283991,11.9303728 L0.679641825,10.9298246 C0.271016094,10.787098 0,10.4063414 0,9.98072002 L0,0.998263883 C0,0.447825287 0.44764255,0.000182748538 0.998081146,0.000182748538 C1.10480629,0.000182748538 1.20614035,0.0151681404 1.30747441,0.0466008889 L4.31058115,1.04714912 C4.71929825,1.18987574 4.99022295,1.5706323 4.99022295,1.99625366 L4.99022295,10.9787098 C4.99022295,11.5291484 4.54267179,11.9767909 3.99223319,11.9767909 Z M0.998081146,0.748720749 C0.860836982,0.748720749 0.748538012,0.861019743 0.748538012,0.998263883 L0.748538012,9.98072002 C0.748538012,10.0869883 0.81990131,10.1857639 0.921692257,10.2212171 L3.91081871,11.217288 C3.93229167,11.2242325 3.96025219,11.2282529 3.99223319,11.2282529 C4.12947733,11.2282529 4.24168494,11.1159539 4.24168494,10.9787098 L4.24168494,1.99625366 C4.24168494,1.88998538 4.17032164,1.7912098 4.06853071,1.75575658 L1.07940423,0.759685661 C1.05793127,0.75274124 1.02997076,0.748720749 0.998081146,0.748720749 Z" id="Shape"></path>
                <path d="M7.61010599,3.99241593 C7.40350877,3.99241593 7.23583698,3.82474414 7.23583698,3.61814692 L7.23583698,1.37253289 C7.23583698,1.02869151 6.95595761,0.748720749 6.61211623,0.748720749 L0.998081146,0.748720749 C0.79148393,0.748720749 0.62381214,0.581048982 0.62381214,0.374451743 C0.62381214,0.167854526 0.79148393,0.000182748538 0.998081146,0.000182748538 L6.61211623,0.000182748538 C7.36915205,0.000182748538 7.98437499,0.615497076 7.98437499,1.37253289 L7.98437499,3.61814692 C7.98437499,3.82474414 7.8167032,3.99241593 7.61010599,3.99241593 Z" id="Path"></path>
                <path d="M6.61211623,10.4797149 L4.61595394,10.4797149 C4.40935673,10.4797149 4.24168494,10.3120431 4.24168494,10.1054459 C4.24168494,9.89884868 4.40935673,9.73117689 4.61595394,9.73117689 L6.61211623,9.73117689 C6.95595761,9.73117689 7.23583698,9.45120613 7.23583698,9.10736477 L7.23583698,6.86175074 C7.23583698,6.6551535 7.40350877,6.48748173 7.61010599,6.48748173 C7.8167032,6.48748173 7.98437499,6.6551535 7.98437499,6.86175074 L7.98437499,9.10736477 C7.98437499,9.86440058 7.36915205,10.4797149 6.61211623,10.4797149 L6.61211623,10.4797149 Z" id="Path"></path>
            </g>
        </g>
    </g>
</svg>