<?xml version="1.0" encoding="UTF-8"?>
<svg width="34px" height="34px" viewBox="0 0 34 34" version="1.1" xmlns="http://www.w3.org/2000/svg" xmlns:xlink="http://www.w3.org/1999/xlink">
    <!-- Generator: sketchtool 59.1 (101010) - https://sketch.com -->
    <title>F28A7BDF-E1D0-4213-9A86-98C0E74EEA75@2x</title>
    <desc>Created with sketchtool.</desc>
    <g id="Page-1" stroke="none" stroke-width="1" fill="none" fill-rule="evenodd">
        <g id="Admin-Dashboard" transform="translate(-815.000000, -391.000000)">
            <g id="Group-5" transform="translate(750.000000, 296.000000)">
                <g id="Group-12" transform="translate(66.000000, 96.000000)">
                    <circle id="Oval-Copy-18" stroke="#FF1936" fill="#FFF3F3" cx="16" cy="16" r="16"></circle>
                    <g id="hands-and-gestures" transform="translate(15.500000, 17.500000) scale(-1, 1) translate(-15.500000, -17.500000) translate(6.000000, 9.000000)" fill="#D70000" fill-rule="nonzero">
                        <path d="M19,6.91982314 C19,6.09536401 18.4079895,5.40794988 17.6294174,5.26477506 C17.819603,4.99170671 17.9318009,4.65952955 17.9318009,4.30137363 C17.9318009,3.60695396 17.5117111,3.00944368 16.9140472,2.75272149 C17.1526489,2.46170159 17.2961579,2.08880495 17.2961579,1.68292412 C17.2961579,0.754987971 16.5464325,0 15.6247864,0 L12.9179764,0 C12.9156571,0 12.9133377,0.000291895604 12.9110184,0.000437845275 C12.9085541,0.000291895604 12.9062347,0 12.9039154,0 L9.06497956,0 C8.02388763,0 7.02787779,0.325025765 6.18479918,0.939757908 L5.60684968,1.36125516 C5.60554506,0.610499666 4.99845884,0 4.25250244,0 L1.35449219,0 C0.607666016,0 0,0.611813187 0,1.36373626 L0,4.37142857 C0,4.57779878 0.166122418,4.74505495 0.37109375,4.74505495 C0.576065082,4.74505495 0.7421875,4.57779878 0.7421875,4.37142857 L0.7421875,1.36373626 C0.7421875,1.02382384 1.01688386,0.747252747 1.35449219,0.747252747 L4.25250244,0.747252747 C4.59011077,0.747252747 4.86480713,1.02382384 4.86480713,1.36373626 L4.86480713,10.3681319 C4.86480713,10.7080443 4.59011077,10.9846154 4.25250244,10.9846154 L1.35449219,10.9846154 C1.01688386,10.9846154 0.7421875,10.7080443 0.7421875,10.3681319 L0.7421875,7.36043956 C0.7421875,7.15406935 0.576065082,6.98681319 0.37109375,6.98681319 C0.166122418,6.98681319 0,7.15406935 0,7.36043956 L0,10.3681319 C0,11.1200549 0.607666016,11.7318681 1.35449219,11.7318681 L4.25250244,11.7318681 C4.90655518,11.7318681 5.45391846,11.2626459 5.57974243,10.6409083 C7.24633025,11.1428228 8.41773989,12.6948317 8.41773989,14.4783139 L8.41773989,16.2527473 C8.41773989,16.6647579 8.75070954,17 9.15992739,17 C10.7038803,17 11.9600906,15.7352164 11.9600906,14.1805803 L11.9600906,11.2211968 L16.2602844,11.2211968 C17.1819305,11.2211968 17.9318009,10.4663547 17.9318009,9.53827265 C17.9318009,9.18011676 17.8197479,8.8480855 17.6295624,8.57487121 C18.4079895,8.43169643 19,7.7442823 19,6.91982314 Z M17.3284836,7.85549451 L11.5613098,7.85549451 C11.3563385,7.85549451 11.1902161,8.02275067 11.1902161,8.22912088 C11.1902161,8.43549109 11.3563385,8.60274725 11.5613098,8.60274725 L16.2602844,8.60274725 C16.7727127,8.60274725 17.1896134,9.02249313 17.1896134,9.53827265 C17.1896134,10.0543441 16.7727127,10.473944 16.2602844,10.473944 L11.5889969,10.473944 C11.3840256,10.473944 11.2179031,10.6413462 11.2179031,10.8475704 L11.2179031,14.1805803 C11.2179031,15.3232057 10.2946625,16.2527473 9.1597824,16.2527473 L9.1597824,14.4783139 C9.1597824,12.2963942 7.68280029,10.4056404 5.60699463,9.87249313 L5.60699463,2.28379121 L6.62010955,1.54500342 C7.33576967,1.02309407 8.18116762,0.747252747 9.06497956,0.747252747 L12.9039154,0.747252747 C12.9062347,0.747252747 12.9085541,0.746814895 12.9108734,0.746814895 C12.9133377,0.746814895 12.9155121,0.747252747 12.9179764,0.747252747 L15.6246414,0.747252747 C16.1370697,0.747252747 16.5539704,1.16699863 16.5539704,1.68292412 C16.5539704,2.19884957 16.1370697,2.61844951 15.6246414,2.61844951 L11.6166839,2.61844951 C11.4118576,2.61844951 11.2455902,2.78585165 11.2455902,2.99207588 C11.2455902,3.19844609 11.4118576,3.36570226 11.6166839,3.36570226 L16.2602844,3.36570226 C16.7727127,3.36570226 17.1896134,3.78544814 17.1896134,4.30137363 C17.1896134,4.81729912 16.7727127,5.23689902 16.2602844,5.23689902 L11.5613098,5.23689902 C11.3563385,5.23689902 11.1902161,5.40430116 11.1902161,5.61052539 C11.1902161,5.8168956 11.3563385,5.98415177 11.5613098,5.98415177 L17.3284836,5.98415177 C17.8409119,5.98415177 18.2578125,6.40389768 18.2578125,6.91982314 C18.2578125,7.43574863 17.8409119,7.85549451 17.3284836,7.85549451 Z" id="Shape"></path>
                        <path d="M4,3 C4,2.44860841 3.55139159,2 3,2 C2.44860841,2 2,2.44860841 2,3 C2,3.55139159 2.44860841,4 3,4 C3.55139159,4 4,3.55139159 4,3 Z M2.625,3 C2.625,2.79321287 2.79321291,2.625 3,2.625 C3.20678709,2.625 3.375,2.79321287 3.375,3 C3.375,3.20678712 3.20678709,3.375 3,3.375 C2.79321291,3.375 2.625,3.20678712 2.625,3 Z" id="Shape"></path>
                        <path d="M0.5,6 C0.6314453,6 0.7605469,5.9464844 0.8535156,5.8535156 C0.9464844,5.7605469 1,5.6314453 1,5.5 C1,5.3685547 0.9464844,5.2394531 0.8535156,5.1464844 C0.7605469,5.0535156 0.6314453,5 0.5,5 C0.3685547,5 0.2394531,5.0535156 0.1464844,5.1464844 C0.0535156,5.2394531 0,5.3685547 0,5.5 C0,5.6314453 0.0535156,5.7605469 0.1464844,5.8535156 C0.2394531,5.9464844 0.3685547,6 0.5,6 Z" id="Path"></path>
                    </g>
                </g>
            </g>
        </g>
    </g>
</svg>