<?xml version="1.0" encoding="UTF-8"?>
<svg width="23px" height="31px" viewBox="0 0 23 31" version="1.1" xmlns="http://www.w3.org/2000/svg" xmlns:xlink="http://www.w3.org/1999/xlink">
    <!-- Generator: sketchtool 59.1 (101010) - https://sketch.com -->
    <title>BD74D04F-C00E-4E83-8C47-7A07DCFE6BA7@2x</title>
    <desc>Created with sketchtool.</desc>
    <defs>
        <polygon id="path-1" points="0 0.0147388527 22.6243269 0.0147388527 22.6243269 20.6444772 0 20.6444772"></polygon>
    </defs>
    <g id="Page-1" stroke="none" stroke-width="1" fill="none" fill-rule="evenodd">
        <g id="Admin-Dashboard" transform="translate(-664.000000, -818.000000)">
            <g id="Group-16-1" transform="translate(664.000000, 818.000000)">
                <path d="M18.2654017,15.9232851 C17.1652069,19.3068689 14.1951777,21.0073911 11.4975022,19.7995834 L15.3856825,30.9851518 L17.5793309,25.6227877 L22.1549476,27.1128544 L18.2654017,15.9232851 Z" id="Fill-1" fill="#555658"></path>
                <path d="M7.90877442,19.7267281 C6.51800706,19.0430324 5.47415426,17.7025341 4.90957181,16.0866657 L1.54587499,27.347323 L6.05280042,25.5454281 L8.46693522,30.7496127 L11.7565651,19.736929 C10.5595225,20.3184572 9.19807386,20.3605059 7.90877442,19.7267281" id="Fill-3" fill="#555658"></path>
                <path d="M12.3069269,22.1281232 C14.9571519,22.0695942 17.5159628,21.2643891 19.6322317,19.8554258 L18.2654075,15.9232745 C17.1652127,19.3068583 14.1951835,21.0073805 11.4975081,19.7995728 L12.3069269,22.1281232 Z" id="Fill-5" fill="#404042"></path>
                <path d="M7.90877442,19.7267281 C6.51800706,19.0430324 5.47415426,17.7025341 4.90957181,16.0866657 L3.65906381,20.27307 C4.38386796,20.6948025 5.16582773,21.0565486 6.00003245,21.3480281 C7.66039301,21.928205 9.37093546,22.1752512 11.0431223,22.1253068 L11.7565651,19.736929 C10.5595225,20.3184572 9.19807386,20.3605059 7.90877442,19.7267281" id="Fill-7" fill="#404042"></path>
                <g id="Group-11" transform="translate(0.000000, 0.011658)">
                    <mask id="mask-2" fill="white">
                        <use xlink:href="#path-1"></use>
                    </mask>
                    <g id="Clip-10"></g>
                    <path d="M21.8724879,14.0195751 C24.1074266,8.70145889 21.1911534,2.7382247 15.3588685,0.700305897 C9.52655449,-1.33758641 2.98678355,1.3215247 0.751844833,6.63964094 C-1.48309388,11.9577572 1.43317933,17.9209914 7.26546425,19.9589102 C13.0977782,21.9968025 19.6375492,19.3376914 21.8724879,14.0195751" id="Fill-9" fill="#EC854C" mask="url(#mask-2)"></path>
                </g>
                <path d="M20.7160847,12.6695622 C20.4965862,12.7708554 20.3353766,12.875593 20.1990109,13.0140597 C20.3128281,12.6559964 20.4033124,12.2773725 20.4693886,11.8783733 C20.9452593,11.9263306 21.2884545,11.8269716 21.6775893,11.5317562 C22.0145081,11.2763374 22.1723762,11.0446853 22.283927,10.6422417 C21.7777496,10.5951588 21.4346416,10.6909938 21.0301936,10.9922238 C20.7798073,11.1787007 20.6265012,11.3507374 20.5130036,11.5878212 C20.5635341,11.2059118 20.5922717,10.8060118 20.5971824,10.3872468 C20.5976473,10.3482451 20.5974149,10.3094819 20.5973568,10.2706391 C21.0860707,10.2240597 21.4056715,10.0576665 21.7286138,9.68399726 C22.0039603,9.3657041 22.1090895,9.10694684 22.1325387,8.69075197 C21.6274945,8.74737333 21.3122233,8.91071949 20.980651,9.28778017 C20.7656854,9.53196479 20.6515776,9.73929385 20.5932597,10.0121733 C20.5783533,9.54568957 20.5252657,9.09428188 20.4363796,8.65999043 C20.8849074,8.51434342 21.1546458,8.28740752 21.385622,7.86620496 C21.5872212,7.49873573 21.6350785,7.22461094 21.5694382,6.8125759 C21.0875236,6.97086137 20.8139205,7.19461778 20.5697233,7.63041949 C20.4369026,7.86758274 20.368095,8.06479043 20.3498761,8.28669214 C20.2440787,7.87661778 20.1055627,7.48307675 19.9363914,7.10789726 C20.3230853,6.8782588 20.5308157,6.60437248 20.6634911,6.15802547 C20.7825096,5.75767504 20.7709739,5.47933744 20.6192659,5.08979726 C20.1814603,5.34269897 19.9613225,5.61685026 19.8152517,6.09303145 C19.7467928,6.31620496 19.7183167,6.50066821 19.7305208,6.68865538 C19.5456004,6.34116393 19.3334243,6.01115966 19.0953001,5.70062974 C19.4170511,5.40051265 19.5593154,5.09215538 19.5937483,4.63362034 C19.625072,4.21779641 19.5546372,3.94822889 19.3233415,3.5978759 C18.9487063,3.93405368 18.7919714,4.24739214 18.7503033,4.74275624 C18.7312127,4.96942718 18.7418767,5.15232718 18.7907801,5.32979556 C18.5354249,5.03916393 18.2556617,4.76813915 17.9538149,4.51794 C18.2119596,4.15404769 18.2878281,3.82083744 18.223321,3.35994427 C18.165468,2.94706137 18.0392142,2.69752462 17.7385588,2.40212376 C17.4436277,2.80711094 17.3568918,3.14495795 17.421486,3.63828188 C17.4537396,3.88477162 17.5096458,4.07299726 17.6107359,4.24956479 C17.2895952,4.01282547 16.9463709,3.7981041 16.583068,3.60699043 C16.7697028,3.18663573 16.7765312,2.83991265 16.6118928,2.39295624 C16.4674492,2.00047504 16.2909845,1.78217675 15.933958,1.55428701 C15.7316033,2.0100665 15.7187309,2.35880325 15.886769,2.82793658 C15.9812923,3.09186051 16.08924,3.27759556 16.255186,3.44364427 C15.8751461,3.26426821 15.4750277,3.10963915 15.0568648,2.98145282 C15.1542357,2.52572632 15.0887987,2.18247419 14.8300439,1.77428103 C14.6054022,1.42013915 14.3862815,1.24224684 13.9885167,1.0918306 C13.8876299,1.57887504 13.9492023,1.92257761 14.2132165,2.34711863 C14.3659123,2.59273402 14.5145983,2.75475538 14.7205852,2.88516735 C14.5851784,2.84902718 14.4482606,2.81527162 14.309425,2.78458957 L13.9772425,2.85416735 C14.194707,2.9022306 14.4087137,2.95789812 14.6192044,3.02040154 C14.2833897,3.07826821 14.0217292,3.22614085 13.7489106,3.50034513 C13.4515387,3.79950838 13.3281325,4.05029043 13.2749577,4.46362376 C13.7829948,4.44152632 14.1090172,4.30027761 14.4666829,3.94698359 C14.7343002,3.68260923 14.8645348,3.45819043 14.9373233,3.12127077 C15.3134694,3.24805282 15.6767432,3.39788615 16.0250816,3.56915453 C15.7332886,3.58012376 15.4750277,3.67325624 15.1871575,3.86158786 C14.8327753,4.09363744 14.6588385,4.31363145 14.5187826,4.70733145 C15.0203398,4.78899128 15.3693756,4.71692291 15.794396,4.44404342 C16.0989161,4.24871692 16.2723879,4.06324684 16.412037,3.77134342 C16.7446264,3.9562306 17.061641,4.1614665 17.361047,4.38546137 C17.0872114,4.34648615 16.8247953,4.38705111 16.5173115,4.50734171 C16.1213773,4.66191778 15.9042325,4.84192974 15.6835717,5.19893316 C16.1568562,5.38061436 16.5135631,5.38103829 16.9872835,5.20020496 C17.3228367,5.07246906 17.5310319,4.92827932 17.7275752,4.6766759 C18.0171307,4.92054256 18.2873632,5.18324769 18.5361223,5.46306906 C18.2752463,5.3679759 18.0088784,5.35374769 17.6809964,5.40896479 C17.2607994,5.47978786 17.0101806,5.61184256 16.7184748,5.91598701 C17.1427398,6.19013829 17.4915721,6.26302803 17.99342,6.1826135 C18.3505917,6.12546222 18.5854325,6.02607675 18.8325935,5.81774085 C19.0664172,6.11557932 19.2771404,6.43032205 19.4623223,6.76032632 C19.2248083,6.60998957 18.964804,6.54014684 18.6275946,6.52761436 C18.201499,6.51174342 17.9282155,6.58966735 17.5780756,6.82796991 C17.9348987,7.18213829 18.2606305,7.32418188 18.7685222,7.34792205 C19.1315055,7.36458786 19.3830251,7.31456393 19.6705175,7.15956393 C19.8319887,7.49486735 19.9682672,7.84405453 20.0766217,8.20574769 C19.8774342,8.01373316 19.6393972,7.89415795 19.3156413,7.81416735 C18.9021566,7.71207932 18.61818,7.73290496 18.2251516,7.89455538 C18.4988709,8.31366479 18.787177,8.51911265 19.2790001,8.64494085 C19.6275128,8.73444342 19.8826645,8.73746393 20.1931704,8.64682205 C20.2737171,8.99545282 20.3290711,9.35439043 20.3573148,9.72236308 C20.2053163,9.50827761 20.0024385,9.35084 19.7148589,9.21234684 C19.332262,9.02820154 19.0500289,8.99113402 18.6311105,9.06945538 C18.8097545,9.53482632 19.0481111,9.79440496 19.5023341,10.0177109 C19.8185352,10.1732409 20.0642433,10.2289084 20.3789915,10.2064665 C20.3796598,10.2656844 20.3796889,10.3251144 20.3789915,10.3847562 C20.3753012,10.6982007 20.3580412,11.0000665 20.3280832,11.2909366 C20.2249299,11.0504879 20.06003,10.8551879 19.8081036,10.6613981 C19.4729282,10.4035152 19.2048169,10.3097733 18.7783436,10.3014537 C18.8540959,10.7926315 19.0320134,11.0951067 19.4289065,11.405928 C19.7106165,11.626505 19.9429002,11.7306862 20.2652905,11.7711451 C20.1990109,12.1889827 20.1048363,12.5822323 19.9847427,12.9516092 C19.9537095,12.6382178 19.8308845,12.3788776 19.5910459,12.0975195 C19.3179949,11.7771067 19.0757155,11.6308768 18.6603711,11.5359161 C18.6299191,12.0321015 18.7397556,12.364199 19.061739,12.7487315 C19.3052388,13.0393896 19.5218316,13.1894614 19.8629928,13.2955503 C19.6978604,13.725152 19.4956219,14.1201238 19.2606068,14.4824793 C19.3269736,14.1238862 19.2679874,13.8193708 19.0732457,13.4582605 C18.8743197,13.089546 18.6684781,12.897028 18.2823653,12.7199836 C18.1470457,13.1990793 18.1839193,13.5457229 18.4171038,13.9877511 C18.5984501,14.3312947 18.783603,14.5234682 19.1119209,14.7008041 C18.8619994,15.0520844 18.5797082,15.3707485 18.2686503,15.6580947 C18.384211,15.3458161 18.383717,15.0508921 18.2774546,14.6839528 C18.1613128,14.282728 18.0007715,14.0527716 17.6608597,13.8011417 C17.4264548,14.2423221 17.3887385,14.5889656 17.5228668,15.0685383 C17.6231724,15.4262836 17.7564,15.6486887 18.0174503,15.8781417 C17.7344908,16.1136092 17.4310749,16.3262639 17.1092949,16.5166622 C17.2216593,16.2819101 17.2593756,16.0323468 17.2381929,15.7213665 C17.2099202,15.3051716 17.1017981,15.0476597 16.8228775,14.7323075 C16.499819,15.1160186 16.3892271,15.4476391 16.4184006,15.9438511 C16.4382176,16.2783067 16.5076354,16.5097998 16.6727097,16.7557597 C16.3055422,16.9421571 15.918238,17.1030126 15.5142841,17.2399691 C15.6823222,17.0293015 15.7760609,16.7886674 15.822814,16.4717255 C15.8835437,16.0588426 15.8326354,15.7851152 15.6267938,15.4201631 C15.2291453,15.7297126 15.0503269,16.0317639 14.9734124,16.5229947 C14.9207606,16.8600468 14.9408973,17.1031981 15.0553829,17.3834964 C14.5492927,17.5286135 14.0203344,17.6389152 13.4746973,17.7172896 C13.8809468,17.5215126 14.1123878,17.2660409 14.2844939,16.8325178 C14.4386717,16.4438255 14.4519509,16.1654879 14.3355185,15.7642896 C13.8768497,15.978852 13.6331756,16.2338203 13.445117,16.6954554 C13.2912879,17.0734964 13.2695821,17.3448656 13.3638148,17.733028 C13.338041,17.7365255 13.312122,17.739652 13.2862901,17.7430169 C13.2824254,17.7429904 13.2788224,17.7428579 13.2749577,17.7428579 C13.2750449,17.7433879 13.2751611,17.7438913 13.2752774,17.7444212 C12.9775277,17.782681 12.6752451,17.8119588 12.3690978,17.8320426 C12.0390365,17.8536896 11.7350976,17.9390588 11.4487965,18.0641981 C11.1642678,17.9404631 10.8623049,17.8560212 10.5345681,17.8345067 C10.2284208,17.8144494 9.92613823,17.7851451 9.62838855,17.7468853 C9.62850478,17.7463819 9.62862101,17.7458785 9.62870818,17.7453485 C9.62490168,17.7453485 9.62132763,17.7455075 9.61755019,17.7455075 C9.59166018,17.7421691 9.56568299,17.7390161 9.53985109,17.7355186 C9.63405471,17.3473562 9.61226177,17.075987 9.45843267,16.697946 C9.27037412,16.2363374 9.02681621,15.9813426 8.56803122,15.7667802 C8.45168598,16.168005 8.46490703,16.4458921 8.61917199,16.8350084 C8.79124905,17.268505 9.02271914,17.5239768 9.42888144,17.7197537 C8.88327337,17.6413793 8.35434417,17.5311041 7.84828303,17.3860135 C7.9627105,17.1057152 7.98290529,16.8625374 7.93010826,16.5254588 C7.85319371,16.0342545 7.67452065,15.7322032 7.27687213,15.4222297 C7.07105959,15.7876058 7.02009317,16.0613597 7.08082283,16.4742161 C7.12760501,16.7911844 7.22131466,17.0318186 7.38938182,17.2424862 C6.98539881,17.1055297 6.59812372,16.9446477 6.2309272,16.7582503 C6.39594335,16.5123169 6.46541924,16.2807708 6.48512006,15.9463417 C6.51446789,15.4501297 6.40387598,15.1185357 6.08078837,14.7347981 C5.80186778,15.0501768 5.69360045,15.3076622 5.66544397,15.7238836 C5.64429029,16.0349699 5.68197755,16.2844537 5.79445818,16.5192323 C5.47259098,16.328834 5.16914607,16.1161528 4.88618653,15.8806588 C5.14726596,15.6512323 5.28046441,15.4288007 5.38068288,15.0710024 C5.51481117,14.5914827 5.47709485,14.2448391 5.24280621,13.8036058 C4.90283633,14.0552622 4.74235312,14.2852451 4.62621127,14.6864699 C4.51991984,15.0534357 4.51945492,15.3483597 4.63504468,15.6606648 C4.32395771,15.3732921 4.04166649,15.0546015 3.79168693,14.7032682 C4.11994673,14.5259323 4.30509955,14.3337853 4.48653305,13.9902682 C4.71977563,13.54824 4.75664929,13.2015964 4.6213006,12.7224477 C4.2351878,12.8995451 4.02922998,13.0920366 3.83027496,13.4607246 C3.63564947,13.8215699 3.5766923,14.1262443 3.6429719,14.4849434 C3.40798588,14.1225879 3.20577645,13.7276426 3.04064408,13.2980674 C3.3818053,13.1919785 3.59839807,13.0419067 3.84181069,12.7512221 C4.16391036,12.3666366 4.27377583,12.0346186 4.24326572,11.5384332 C3.82795038,11.6333938 3.585671,11.7796238 3.31261998,12.1000366 C3.0727814,12.3813947 2.94992733,12.6407614 2.91892324,12.9541528 C2.79880055,12.5847494 2.70465504,12.1914733 2.63837545,11.7736092 C2.96073663,11.7331768 3.19304937,11.6290221 3.47475946,11.4084186 C3.87165249,11.0975973 4.04959912,10.7951221 4.12520609,10.3039443 C3.69881994,10.3122374 3.43073771,10.4060058 3.09556229,10.6638887 C2.84357778,10.8576785 2.67867786,11.052952 2.57555366,11.2934007 C2.54562469,11.0025306 2.52836468,10.7006383 2.52467441,10.3872468 C2.52397704,10.327605 2.52400609,10.268175 2.52470347,10.2089571 C2.83942259,10.231399 3.08513073,10.1757579 3.40136083,10.020228 C3.85555477,9.79692205 4.09391143,9.53734342 4.27249732,9.07194598 C3.85366605,8.99365111 3.57140388,9.03071863 3.18880702,9.21483744 C2.90116925,9.35335709 2.69832056,9.51076821 2.54635112,9.72482718 C2.57462383,9.35685453 2.6299779,8.99794342 2.71049555,8.64931265 C3.02100137,8.73998103 3.27626935,8.73693402 3.62466583,8.64740496 C4.11651797,8.52117932 4.40479499,8.31618188 4.67842716,7.89707248 C4.28548591,7.73542205 4.00150936,7.71417248 3.58802463,7.81665795 C3.26423965,7.89667504 3.02623168,8.01627675 2.82701514,8.20829128 C2.93536964,7.84659812 3.07164817,7.49741094 3.23314839,7.16210752 C3.52066992,7.31708103 3.77207328,7.36710496 4.13502745,7.35046564 C4.64306448,7.32667248 4.96865101,7.18462889 5.3254741,6.83048701 C4.97550853,6.59215795 4.70216694,6.51383658 4.27612947,6.53007846 C3.93894909,6.54263744 3.67888667,6.61245368 3.44137267,6.76276393 C3.62658361,6.43275966 3.8372487,6.11804342 4.07110149,5.82023145 C4.31823343,6.02854085 4.55307416,6.12795282 4.91027499,6.1851306 C5.41209377,6.26554513 5.76095517,6.19220496 6.18522014,5.9185041 C5.89351436,5.61433316 5.64277931,5.48227846 5.22258236,5.41145538 C4.89472936,5.35599983 4.62847774,5.37025453 4.36768888,5.46540068 C4.61641898,5.18563231 4.88656427,4.92298017 5.17609075,4.67914 C5.37263402,4.93074342 5.58082925,5.07495966 5.91629525,5.20272205 C6.39010284,5.38355538 6.74683875,5.38313145 7.22009425,5.20107932 C6.99946252,4.84439385 6.7822886,4.66443487 6.38638351,4.5098588 C6.07887059,4.38956821 5.81645452,4.34897675 5.5425899,4.38797846 C5.84202491,4.16398359 6.15903955,3.9587212 6.49165794,3.77380752 C6.63127805,4.06576393 6.80474986,4.25120752 7.10929894,4.44653402 C7.5343194,4.71944 7.8833842,4.79150838 8.38488335,4.70982205 C8.24491455,4.31614855 8.07089066,4.0957306 7.71642121,3.86410496 C7.42863817,3.67574684 7.17040635,3.58264085 6.8786134,3.57164513 C7.22689365,3.40040325 7.5901965,3.25054342 7.96637171,3.12378786 C8.03907296,3.46068103 8.16939475,3.68512632 8.43698301,3.94950068 C8.79476498,4.3027947 9.12081643,4.44404342 9.62870818,4.46611436 C9.57544623,4.05241009 9.45206913,3.80157504 9.15469719,3.50286222 C8.88193674,3.22865795 8.62030522,3.0807853 8.28449053,3.02291863 C8.49495223,2.96041521 8.70898796,2.90474769 8.92645245,2.85668444 L8.59426992,2.78710667 C8.4554053,2.81776222 8.31845846,2.85154427 8.18305166,2.88765795 C8.38906759,2.75729897 8.53772451,2.59525111 8.69047849,2.34963573 C8.95460893,1.92506821 9.0159488,1.58136564 8.91506201,1.0943212 C8.51729726,1.24471094 8.29829273,1.42262974 8.07368015,1.77677162 C7.81489625,2.18496479 7.74945931,2.52821692 7.84683017,2.98394342 C7.42863817,3.11215624 7.02854883,3.2667853 6.64845089,3.44616137 C6.81439687,3.28011265 6.92231551,3.09437761 7.01692593,2.83042718 C7.18496403,2.36129385 7.17209167,2.01258359 6.96973695,1.55677761 C6.61271046,1.78469385 6.43624576,2.00299214 6.29177309,2.39547333 C6.12716374,2.84242974 6.13396314,3.18912632 6.32059789,3.60948103 C5.95717881,3.80064769 5.6138964,4.01539556 5.29266846,4.25224085 C5.39387487,4.07567333 5.4498682,3.88736821 5.48220893,3.64077248 C5.54677415,3.14747504 5.4600673,2.80917761 5.16513617,2.40464085 C4.86448076,2.70004171 4.73819793,2.94957846 4.68037399,3.36246137 C4.61583783,3.82343402 4.69173538,4.15669726 4.94993814,4.52035111 C4.64803327,4.77055026 4.36824097,5.04160154 4.11285676,5.33228615 C4.16178918,5.15481778 4.17245319,4.97194427 4.15339163,4.74527333 C4.11172353,4.24990923 3.95487247,3.93657077 3.58026635,3.60034 C3.34902872,3.95074598 3.27859393,4.22028701 3.30983048,4.63611094 C3.34437956,5.09461949 3.48661482,5.40300325 3.80833673,5.70312034 C3.57021254,6.01362376 3.35803646,6.34362803 3.17314516,6.69109299 C3.1853492,6.50313231 3.15690215,6.31869556 3.0884142,6.09554855 C2.94234338,5.61934085 2.72223468,5.34521607 2.28439997,5.09231436 C2.13272111,5.48185453 2.12118538,5.76019214 2.24020389,6.16051607 C2.37285026,6.60688957 2.5804934,6.8807494 2.96721639,7.11038786 C2.79810317,7.48546137 2.65958724,7.8789494 2.55378978,8.28894427 C2.53554182,8.06712205 2.46673425,7.86996735 2.33397165,7.63291009 C2.08977449,7.19713487 1.81614232,6.97337846 1.33411153,6.8150665 C1.26858742,7.22712803 1.31644472,7.50125282 1.51804395,7.86872205 C1.74899101,8.28987162 2.01864233,8.51680752 2.46725728,8.66245453 C2.37837114,9.09671949 2.32531259,9.54810068 2.31037716,10.0145579 C2.25211737,9.74173145 2.13795141,9.53442889 1.9230149,9.29024427 C1.59132634,8.91323658 1.27617136,8.74989043 0.771156284,8.69324256 C0.794576431,9.10946393 0.899763692,9.36816821 1.17505212,9.68651436 C1.49799444,10.0601836 1.81762424,10.2261528 2.3063382,10.2731032 C2.30625103,10.3118135 2.30601857,10.3504443 2.30648349,10.38934 C2.31139416,10.8082904 2.34016085,11.2083759 2.39069141,11.5904178 C2.27722283,11.3531485 2.12382959,11.1809263 1.87347228,10.9946879 C1.46902436,10.6934844 1.1259163,10.5976494 0.619738932,10.6447323 C0.731289731,11.0472024 0.889157794,11.2788545 1.22607666,11.5342203 C1.61524046,11.8294887 1.95834852,11.9288477 2.43430635,11.8808639 C2.50044066,12.2799426 2.59092495,12.6586195 2.70477127,13.0167622 C2.56834746,12.8782161 2.40713782,12.7733725 2.1875812,12.6720528 C1.72780827,12.4595571 1.3718569,12.4358169 0.886833213,12.5845639 C1.08140059,12.9557956 1.28509194,13.1499297 1.66911261,13.3315579 C2.08986166,13.5304879 2.43267914,13.5651178 2.85569465,13.4453306 C2.98842819,13.7883443 3.14365204,14.1110622 3.31907069,14.4144118 C3.18497146,14.3429263 3.03526848,14.2913126 2.85145229,14.2489725 C2.35654914,14.1344315 2.00335821,14.1836075 1.56064188,14.4277391 C1.82985735,14.7510665 2.07056764,14.899787 2.48463351,14.9993579 C2.92060856,15.1039631 3.25398244,15.0754537 3.623736,14.8930836 C3.82998439,15.1884579 4.05741552,15.4627152 4.30385009,15.7165973 C4.16446244,15.6787084 4.01441078,15.6603733 3.83626076,15.6563725 C3.32804938,15.6451383 2.99284489,15.7647135 2.61161372,16.0938434 C2.94385436,16.3550648 3.21083241,16.4517477 3.63713139,16.4650485 C4.08905887,16.4789588 4.41031587,16.3819315 4.73566995,16.12434 C5.02461529,16.3744597 5.3341041,16.6013161 5.66184087,16.8052802 C5.48871775,16.7832357 5.31184625,16.793675 5.09908903,16.8329417 C4.59936237,16.9250144 4.29696352,17.110405 3.99418693,17.5095366 C4.37477885,17.6978682 4.65648893,17.7382742 5.07627908,17.6645631 C5.54049778,17.5828503 5.84001996,17.4114494 6.1123736,17.0652827 C6.45347671,17.2479443 6.81096811,17.4087468 7.18243605,17.5481674 C7.04987686,17.5705297 6.91473157,17.6119691 6.76282024,17.6741015 C6.29366181,17.8661691 6.03731871,18.1086844 5.82589813,18.5607015 C6.23827869,18.6677973 6.52242958,18.6498597 6.9172886,18.4923956 C7.33379529,18.3260554 7.58653529,18.1110426 7.7762501,17.7496938 C8.08103164,17.8426144 8.3934843,17.9226579 8.71247483,17.9899041 C8.67103919,18.0155785 8.628819,18.0435844 8.5853784,18.074081 C8.17238765,18.3640503 7.97848859,18.6569605 7.87664291,19.1439785 C8.30282566,19.1573323 8.57567328,19.0773417 8.92409882,18.8369195 C9.22324325,18.6308357 9.40889005,18.4165648 9.52262014,18.1318947 C9.85303018,18.1786332 10.1887286,18.2130511 10.5284661,18.2353075 C10.6892689,18.2458263 10.8384198,18.2721631 10.9790278,18.3105024 C10.323932,18.7061896 9.74548928,19.2573272 9.12261798,19.6185434 L9.61964231,19.8214477 C10.3135295,19.4193485 10.8009359,18.8341639 11.4494357,18.496052 C12.1003473,18.8337665 12.5883929,19.4208323 13.2839074,19.8239118 L13.781077,19.621034 C13.1563751,19.2588109 12.5763632,18.7055537 11.9189428,18.3096015 C12.0612362,18.2703879 12.2122177,18.2434947 12.3751708,18.2328169 C12.7148792,18.210534 13.0506067,18.1761426 13.3810167,18.1293776 C13.4947759,18.4141007 13.6804227,18.6284511 13.9794509,18.8348263 C14.3279636,19.0748511 14.600695,19.1548417 15.0271392,19.1414879 C14.9251773,18.6544434 14.7312492,18.3615597 14.3182585,18.0715904 C14.2748179,18.0410938 14.2325977,18.0130879 14.191133,17.98744 C14.5100654,17.9201409 14.822518,17.8401503 15.1272705,17.7472297 C15.3169272,18.108446 15.5697544,18.3235383 15.986232,18.4898785 C16.3811201,18.6473426 16.6653582,18.6652802 17.0776225,18.5582109 C16.8663181,18.1061674 16.609975,17.8636785 16.1408457,17.6716374 C15.9889053,17.6094785 15.85376,17.5680391 15.7211717,17.5457032 C16.0926687,17.4062562 16.4501601,17.2454537 16.7912923,17.0627656 C17.063646,17.4089853 17.3630519,17.5803597 17.8273868,17.662046 C18.247177,17.7357571 18.5288871,17.6953511 18.909479,17.507046 C18.6065571,17.1078879 18.3042745,16.9225238 17.8045769,16.8304511 C17.5917906,16.7912109 17.4149772,16.7807451 17.2418832,16.8027896 C17.5695909,16.5988255 17.8790797,16.3719691 18.167996,16.1218759 C18.4932919,16.3794674 18.814607,16.4764682 19.2663892,16.4625844 C19.6927173,16.4492306 19.9596953,16.3525477 20.291936,16.0913528 C19.910821,15.7621964 19.5755875,15.6426212 19.0672889,15.6538819 C18.889197,15.6578827 18.7392325,15.6761913 18.599903,15.7140272 C18.8463376,15.4601981 19.0737396,15.1859409 19.279988,14.8906195 C19.6497125,15.0729366 19.9830283,15.101446 20.4189162,14.9968409 C20.8330692,14.8972699 21.0737795,14.7485494 21.343024,14.4252485 C20.9003368,14.1810904 20.5470296,14.1319144 20.0520974,14.2465084 C19.8683974,14.2888221 19.7187526,14.3403827 19.5847115,14.4118417 C19.7601301,14.1085186 19.9153249,13.7858272 20.0480294,13.4428665 C20.4709287,13.5626272 20.8138333,13.5279708 21.2345533,13.3290938 C21.618574,13.1474391 21.8221491,12.9532785 22.0168327,12.5820733 C21.5318381,12.4333263 21.1758576,12.4570665 20.7160847,12.6695622" id="Fill-12" fill="#EE994D"></path>
                <polygon id="Fill-14" fill="#FEFEFE" points="13.2367533 2.74256735 13.3527789 4.24805453 14.9588605 3.88347333 13.4244922 4.44931607 14.3010624 5.72945709 13.2367533 4.57368701 12.1724441 5.72945709 13.0490143 4.44931607 11.514646 3.88347333 13.1207276 4.24805453"></polygon>
            </g>
        </g>
    </g>
</svg>