<?xml version="1.0" encoding="UTF-8"?>
<svg width="23px" height="31px" viewBox="0 0 23 31" version="1.1" xmlns="http://www.w3.org/2000/svg" xmlns:xlink="http://www.w3.org/1999/xlink">
    <!-- Generator: sketchtool 59.1 (101010) - https://sketch.com -->
    <title>11CCF359-C7DB-4927-B6AF-500AC4F4AE5D@2x</title>
    <desc>Created with sketchtool.</desc>
    <defs>
        <polygon id="path-1" points="0 0.0147362031 22.6243269 0.0147362031 22.6243269 20.6444854 0 20.6444854"></polygon>
    </defs>
    <g id="Page-1" stroke="none" stroke-width="1" fill="none" fill-rule="evenodd">
        <g id="Admin-Dashboard" transform="translate(-664.000000, -761.000000)">
            <g id="Group-16-2" transform="translate(664.000000, 761.000000)">
                <path d="M18.2654046,15.9232825 C17.1652098,19.3068662 14.1951806,21.0073885 11.4975051,19.7995808 L15.3856854,30.9851491 L17.5793338,25.622785 L22.1549505,27.1128517 L18.2654046,15.9232825 Z" id="Fill-1" fill="#555658"></path>
                <path d="M7.90877442,19.7267255 C6.51800706,19.0430562 5.47415426,17.7025315 4.90957181,16.0866631 L1.54587499,27.3473203 L6.05280042,25.5454255 L8.46693522,30.7496101 L11.7565651,19.7369263 C10.5595225,20.3184545 9.19807386,20.3605032 7.90877442,19.7267255" id="Fill-3" fill="#555658"></path>
                <path d="M12.3069269,22.1281206 C14.9571519,22.0695915 17.5159628,21.2643864 19.6322317,19.8554232 L18.2654075,15.9232719 C17.1652127,19.3068556 14.1951835,21.0074044 11.4975081,19.7995702 L12.3069269,22.1281206 Z" id="Fill-5" fill="#404042"></path>
                <path d="M7.90877442,19.7267255 C6.51800706,19.0430297 5.47415426,17.7025315 4.90957181,16.0866631 L3.65906381,20.2730674 C4.38386796,20.6948263 5.16582773,21.056546 6.00003245,21.3480255 C7.66039301,21.9282024 9.37093546,22.1752485 11.0431223,22.1253306 L11.7565651,19.7369263 C10.5595225,20.3184545 9.19807386,20.3605032 7.90877442,19.7267255" id="Fill-7" fill="#404042"></path>
                <g id="Group-11" transform="translate(0.000000, 0.011658)">
                    <mask id="mask-2" fill="white">
                        <use xlink:href="#path-1"></use>
                    </mask>
                    <g id="Clip-10"></g>
                    <path d="M21.8724908,14.0195725 C24.1074295,8.70145624 21.1911563,2.73822205 15.3588714,0.700303248 C9.5265574,-1.33758906 2.98678645,1.32152205 0.751847738,6.63963829 C-1.48309098,11.9577545 1.43315318,17.9209887 7.26546715,19.9589075 C13.0977811,21.9968263 19.6375521,19.3376887 21.8724908,14.0195725" id="Fill-9" fill="#D9D9D8" mask="url(#mask-2)"></path>
                </g>
                <path d="M20.7160876,12.6695596 C20.4965891,12.7708527 20.3353795,12.8755903 20.1990138,13.014057 C20.312831,12.6559938 20.4033153,12.2773698 20.4693915,11.8783707 C20.9452622,11.9263279 21.2884574,11.826969 21.6775922,11.5317536 C22.014511,11.2763348 22.1723791,11.0446826 22.2839299,10.6422391 C21.7777525,10.5951562 21.4346445,10.6909912 21.0301965,10.9922211 C20.7798102,11.178698 20.6265041,11.3507348 20.5130065,11.587845 C20.563537,11.2059356 20.5922747,10.8060091 20.5971853,10.3872707 C20.5976502,10.3482425 20.5974178,10.3094792 20.5973597,10.2706365 C21.0860736,10.224057 21.4056744,10.0576638 21.7286167,9.68399462 C22.0039632,9.36570145 22.1090924,9.10694419 22.1325416,8.69074932 C21.6274975,8.74739718 21.3122262,8.91071684 20.9806539,9.28777752 C20.7656883,9.53196214 20.6515805,9.7392912 20.5932626,10.0121707 C20.5783562,9.54568692 20.5252686,9.09427923 20.4363825,8.65998778 C20.8849103,8.51436726 21.1546488,8.28743137 21.3856249,7.8662288 C21.5872241,7.49875957 21.6350814,7.22460829 21.5694411,6.81257325 C21.0875265,6.97088521 20.8139234,7.19461513 20.5697262,7.63041684 C20.4369055,7.86758009 20.3680979,8.06478778 20.349879,8.28668949 C20.2440816,7.87661513 20.1055656,7.4830741 19.9363943,7.10789462 C20.3230883,6.87825615 20.5308186,6.60436983 20.663494,6.15802282 C20.7825125,5.75767239 20.7709768,5.47933479 20.6192688,5.08979462 C20.1814632,5.34272282 19.9613254,5.61684761 19.8152546,6.0930553 C19.7467957,6.31620231 19.7183196,6.50069205 19.7305237,6.68865274 C19.5456033,6.34116128 19.3334272,6.0111835 19.095303,5.70062709 C19.417054,5.40051 19.5593183,5.09215274 19.5937512,4.63361769 C19.6250749,4.21779376 19.5546401,3.94822624 19.3233444,3.59787325 C18.9487092,3.93405103 18.7919743,4.24738949 18.7503062,4.74275359 C18.7312156,4.96945103 18.7418796,5.15232453 18.790783,5.32979291 C18.5354278,5.03916128 18.2556646,4.7681365 17.9538178,4.51793735 C18.2119625,4.15404504 18.287831,3.82083479 18.2233239,3.35994162 C18.1654709,2.94705872 18.0392171,2.69752197 17.7385617,2.40212111 C17.4436306,2.80710829 17.3568947,3.1449553 17.4214889,3.63827923 C17.4537425,3.88476897 17.5096487,4.07299462 17.6107388,4.24956214 C17.2895981,4.01282282 16.9463738,3.79810145 16.5830709,3.60698778 C16.7697057,3.18663308 16.7765341,2.83991 16.6118957,2.39298009 C16.4674521,2.00047239 16.2909874,1.7821741 15.9339609,1.55428436 C15.7316062,2.01006385 15.7187338,2.3588006 15.8867719,2.82793393 C15.9812952,3.09188436 16.0892138,3.27759291 16.2551889,3.44364162 C15.875149,3.26426556 15.4750307,3.10966299 15.0568677,2.98147667 C15.1542386,2.52572368 15.0888016,2.18247154 14.8300468,1.77427838 C14.6054051,1.4201365 14.3862844,1.24224419 13.9885196,1.09182795 C13.8876328,1.57887239 13.9492052,1.92257496 14.2132194,2.34711598 C14.3658862,2.59273137 14.5146012,2.75475274 14.7205881,2.8851647 C14.5851813,2.84902453 14.4482635,2.81526897 14.309428,2.78458692 L13.9772454,2.8541647 C14.1947099,2.90222795 14.4087166,2.95789547 14.6192073,3.02039889 C14.2833927,3.07826556 14.0217321,3.22613821 13.7489135,3.50034248 C13.4515416,3.79950573 13.3281354,4.05028778 13.2749606,4.46362111 C13.7829977,4.44152368 14.1090201,4.30027496 14.4666858,3.94698094 C14.7343031,3.68260658 14.8645377,3.45818778 14.9373262,3.12126812 C15.3134723,3.24805017 15.6767461,3.3978835 16.0250845,3.56915188 C15.7332625,3.58012111 15.4750307,3.67325359 15.1871604,3.86158521 C14.8327782,4.09363479 14.6588124,4.3136288 14.5187855,4.7073288 C15.0203427,4.78898863 15.3693785,4.71692026 15.7943989,4.44404077 C16.098919,4.24871427 16.2723908,4.06327068 16.4120399,3.77134077 C16.7446293,3.95622795 17.0616439,4.16149034 17.3610499,4.38545872 C17.0872143,4.3464835 16.8247982,4.38707496 16.5173144,4.50733906 C16.1213802,4.66191513 15.9042354,4.84192709 15.6835746,5.19893051 C16.1568591,5.38061171 16.513566,5.38103564 16.9872864,5.20020231 C17.3228396,5.07246641 17.5310348,4.92827667 17.7275781,4.67667325 C18.0171336,4.92053991 18.2873661,5.18324504 18.5361252,5.46306641 C18.2752492,5.36797325 18.0088813,5.35374504 17.6809993,5.40896214 C17.2608023,5.47978521 17.0101835,5.61183991 16.7184777,5.91598436 C17.1427427,6.19013564 17.491575,6.26302538 17.9934229,6.18261085 C18.3505947,6.12545957 18.5854063,6.0260741 18.8325964,5.8177647 C19.0664201,6.11557667 19.2771433,6.4303194 19.4623252,6.76032368 C19.2248112,6.60998692 18.9648069,6.54014419 18.6275975,6.52761171 C18.2015019,6.51176726 17.9282184,6.5896647 17.5780785,6.82796726 C17.9349016,7.18213564 18.2606334,7.32417923 18.7685251,7.3479459 C19.1315084,7.36458521 19.383028,7.31456128 19.6705204,7.15956128 C19.8319916,7.4948647 19.9682701,7.84405188 20.0766246,8.20574504 C19.8774371,8.01373051 19.6394001,7.8941553 19.3156442,7.8141647 C18.9021595,7.71207667 18.6181829,7.73290231 18.2251545,7.89457923 C18.4988738,8.31368863 18.7871799,8.51911 19.279003,8.64493821 C19.6275157,8.73444077 19.8826674,8.73748778 20.1931733,8.6468194 C20.27372,8.99545017 20.329074,9.35438778 20.3573177,9.72236043 C20.2053192,9.50827496 20.0024414,9.35083735 19.7148618,9.21234419 C19.3322649,9.02822538 19.0500318,8.99113137 18.6311134,9.06945274 C18.8097574,9.53482368 19.048114,9.79440231 19.502337,10.0177083 C19.8185381,10.1732382 20.0642462,10.2289057 20.3789654,10.2064638 C20.3796627,10.2656818 20.3796918,10.3251117 20.3789944,10.3847536 C20.3753041,10.698198 20.3580441,11.0000638 20.3280861,11.2909339 C20.2249328,11.0504852 20.0600329,10.8551852 19.8081065,10.6613955 C19.4729311,10.4035126 19.2048198,10.3097707 18.7783465,10.301451 C18.8540697,10.7926288 19.0320163,11.095104 19.4289094,11.4059254 C19.7106194,11.6265023 19.9429031,11.7306835 20.2652934,11.7711425 C20.1990138,12.1889801 20.1048392,12.5822297 19.9847456,12.9516066 C19.9537124,12.6382151 19.8308874,12.378875 19.5910488,12.0975433 C19.3179978,11.777104 19.0757184,11.6308741 18.660374,11.5359134 C18.629922,12.0320989 18.7397585,12.3641963 19.0617419,12.7487288 C19.3052417,13.0393869 19.5218345,13.1894587 19.8629957,13.2955476 C19.6978633,13.7251493 19.4956248,14.1201211 19.2606097,14.4824767 C19.3269765,14.1238835 19.2679903,13.8193681 19.0732486,13.4582579 C18.8743226,13.0895433 18.668481,12.8970254 18.2823682,12.7199809 C18.1470486,13.1990767 18.1839222,13.5457203 18.4171067,13.987775 C18.598453,14.3312921 18.7836059,14.5234921 19.1119238,14.7008015 C18.8620023,15.0520818 18.5797111,15.3707459 18.2686532,15.6580921 C18.3842139,15.3458134 18.3837199,15.0508895 18.2774575,14.6839502 C18.1613157,14.2827254 18.0007744,14.052769 17.6608626,13.8011391 C17.4264577,14.2423194 17.3887414,14.588963 17.5228697,15.0685356 C17.6231754,15.4262809 17.7564029,15.6486861 18.0174532,15.8781391 C17.7344937,16.1136066 17.4310778,16.3262878 17.1092978,16.5166596 C17.2216622,16.2819074 17.2593785,16.0323442 17.2381958,15.7213638 C17.2099231,15.305169 17.101801,15.047657 16.8228805,14.7323049 C16.4998219,15.116016 16.38923,15.4476365 16.4184035,15.943875 C16.4381915,16.278304 16.5076383,16.5097972 16.6727126,16.755757 C16.3055451,16.9421544 15.918241,17.10301 15.514287,17.2399664 C15.6823251,17.0292989 15.7760638,16.7886647 15.8228169,16.4717228 C15.8835466,16.0588399 15.8326383,15.7851126 15.6267967,15.4201604 C15.2291482,15.72971 15.0503298,16.0317613 14.9734153,16.5229921 C14.9207635,16.8600442 14.9409002,17.1031955 15.0553858,17.3834938 C14.5492956,17.5286374 14.0203373,17.6389126 13.4747002,17.7172869 C13.8809497,17.52151 14.1123907,17.2660382 14.2844678,16.8325151 C14.4386746,16.4438228 14.4519538,16.1654852 14.3355214,15.7642869 C13.8768526,15.9788493 13.6331785,16.2338177 13.4451199,16.6954527 C13.2912908,17.0734938 13.269585,17.344863 13.3638177,17.7330254 C13.3380439,17.7365228 13.3121249,17.7396493 13.286293,17.7430143 C13.2824284,17.7429878 13.2788253,17.7428553 13.2749606,17.7428553 C13.2750478,17.7433852 13.275164,17.7438886 13.2752803,17.7444185 C12.9775306,17.7826784 12.675248,17.8119826 12.3691007,17.8320399 C12.0390394,17.8536869 11.7351005,17.9390826 11.4487994,18.064222 C11.1642707,17.9404604 10.8623078,17.8560185 10.5345419,17.834504 C10.2284238,17.8144732 9.92614114,17.7851425 9.62839145,17.7468826 C9.62850768,17.7463792 9.62862391,17.7458758 9.62871108,17.7453459 C9.62490458,17.7453459 9.62133054,17.7455049 9.6175531,17.7455049 C9.59166308,17.7421664 9.5656859,17.7390134 9.539854,17.7355425 C9.63405762,17.3473536 9.61226468,17.0759844 9.45843557,16.6979698 C9.27037702,16.2363348 9.02681912,15.9813399 8.56803413,15.766804 C8.45168888,16.1680023 8.46490993,16.4458895 8.6191749,16.8350057 C8.79125196,17.2685023 9.02272204,17.5239741 9.42888434,17.7197775 C8.88327628,17.6414032 8.35434708,17.5311015 7.84828594,17.3860109 C7.96271341,17.1057126 7.9829082,16.8625348 7.93011117,16.5254562 C7.85319661,16.0342519 7.67452356,15.7322006 7.27687503,15.4222271 C7.0710625,15.7876032 7.02009608,16.061357 7.08082574,16.4742134 C7.12760792,16.7911818 7.22131756,17.031816 7.38938472,17.2424835 C6.98540171,17.1055271 6.59812663,16.9446715 6.23093011,16.7582476 C6.39594625,16.5123143 6.46542215,16.2807681 6.48512297,15.9463391 C6.51447079,15.4501271 6.40387888,15.1185331 6.08079127,14.7347955 C5.80187069,15.0501741 5.69360336,15.3076596 5.66544688,15.7238809 C5.6442932,16.0349938 5.68198046,16.284451 5.79446109,16.5192297 C5.47259388,16.3288314 5.16914898,16.1161502 4.88618943,15.8806562 C5.14726886,15.6512297 5.28046732,15.428798 5.38068579,15.0709997 C5.51481407,14.5914801 5.47709776,14.2448365 5.24280911,13.8036032 C4.90283924,14.0552596 4.74235602,14.2852425 4.62621418,14.6864673 C4.51992274,15.0534331 4.51945783,15.348357 4.63504758,15.6606886 C4.32396062,15.3732895 4.04164034,15.0545989 3.79168983,14.7032656 C4.11994964,14.5259297 4.30510246,14.3337826 4.48653596,13.9902656 C4.71977854,13.5482374 4.75665219,13.2015938 4.6213035,12.7224715 C4.23519071,12.8995425 4.02923289,13.0920339 3.83027787,13.460722 C3.63565238,13.8215673 3.57669521,14.1262416 3.64297481,14.4849408 C3.40798879,14.1225852 3.20577936,13.7276399 3.04064698,13.2980647 C3.3818082,13.1919758 3.59840098,13.041904 3.8418136,12.7512459 C4.16391326,12.3666604 4.27377874,12.034616 4.24326862,11.5384305 C3.82795329,11.6333912 3.5856739,11.7796211 3.31262288,12.1000339 C3.0727843,12.3813921 2.94993023,12.6407587 2.91892614,12.9541502 C2.79880345,12.5847468 2.70465795,12.1914707 2.63837835,11.7736066 C2.96073953,11.7331741 3.19305228,11.6290459 3.47476236,11.408416 C3.8716554,11.0976211 4.04960202,10.7951194 4.125209,10.3039416 C3.69882285,10.3122613 3.43074062,10.4060032 3.09556519,10.6639126 C2.84358068,10.8576758 2.67868076,11.0529493 2.57555657,11.293398 C2.5456276,11.0025279 2.52836759,10.7006621 2.52467732,10.3872707 C2.52397994,10.3276023 2.524009,10.2681724 2.52470637,10.2089544 C2.8394255,10.2313963 3.08513364,10.1757553 3.40136374,10.0202254 C3.85555768,9.7969194 4.09391434,9.53734077 4.27250022,9.07194333 C3.85366896,8.99364846 3.57140679,9.03071598 3.18880992,9.21486128 C2.90117216,9.35335444 2.69832347,9.51076556 2.54635403,9.72482453 C2.57462674,9.35685188 2.62995175,8.99794077 2.71049846,8.64931 C3.02100428,8.73997838 3.27627226,8.73693137 3.62466874,8.64740231 C4.11652088,8.52117667 4.4047979,8.31617923 4.67843006,7.89706983 C4.28548881,7.7354194 4.00151227,7.71416983 3.58802754,7.8166553 C3.26424255,7.89667239 3.02623458,8.0162741 2.82701805,8.20828863 C2.93537255,7.84662197 3.07165107,7.49740829 3.23315129,7.16210487 C3.52067282,7.31707838 3.77207619,7.36710231 4.13503035,7.35046299 C4.64306739,7.32669632 4.96865392,7.18462624 5.325477,6.83048436 C4.97551143,6.5921553 4.70216984,6.51383393 4.27613238,6.53007581 C3.93892294,6.54263479 3.67888957,6.61245103 3.44137558,6.76276128 C3.62658651,6.4327835 3.83725161,6.11804077 4.07110439,5.8202288 C4.31823634,6.02853821 4.55307707,6.12797667 4.9102779,6.18512795 C5.41209668,6.26554248 5.76095807,6.19220231 6.18522304,5.91850145 C5.89351727,5.61433051 5.64278222,5.48227581 5.22258527,5.41145274 C4.89473227,5.35599718 4.62848064,5.37027838 4.36769179,5.46542453 C4.61642188,5.18562966 4.88656718,4.92297752 5.17609366,4.67913735 C5.37263693,4.93074077 5.58083215,5.07495701 5.9162691,5.2027194 C6.39010574,5.38355274 6.7468126,5.3831288 7.22009716,5.20107667 C6.99946543,4.84441769 6.78229151,4.66443222 6.38638642,4.50985615 C6.07887349,4.38956556 5.81645743,4.3489741 5.54259281,4.38797581 C5.84202781,4.16398094 6.15904246,3.95871855 6.49166085,3.77383137 C6.63128096,4.06576128 6.80475276,4.25120487 7.10930185,4.44653137 C7.53432231,4.71943735 7.8833871,4.79150573 8.38488625,4.7098194 C8.24491746,4.3161459 8.07089356,4.09572795 7.71642412,3.86410231 C7.42864107,3.67574419 7.17040925,3.58263821 6.8786163,3.57164248 C7.22689655,3.4004006 7.59019941,3.25054077 7.96637462,3.12378521 C8.03907587,3.46067838 8.16939766,3.68512368 8.43698591,3.94949803 C8.79476788,4.30279205 9.12081933,4.44404077 9.62871108,4.46611171 C9.57544914,4.05240744 9.45207203,3.80157239 9.15470009,3.50285957 C8.88193965,3.2286553 8.62030813,3.08078265 8.28449344,3.02291598 C8.49495513,2.96041256 8.70899087,2.90474504 8.92645536,2.85668179 L8.59427283,2.78710402 C8.45540821,2.81775957 8.31846137,2.85154162 8.18305457,2.8876553 C8.38904144,2.75729632 8.53772741,2.59524846 8.6904814,2.34963308 C8.95461184,1.92506556 9.0159517,1.58136299 8.91506492,1.09431855 C8.51730016,1.24470829 8.29829564,1.42262709 8.07368306,1.77676897 C7.81489915,2.18496214 7.74946222,2.52821427 7.84683308,2.98394077 C7.42864107,3.11215359 7.02855174,3.26678265 6.64845379,3.44615872 C6.81439977,3.28011 6.92231841,3.09437496 7.01692883,2.83042453 C7.18496694,2.3612912 7.17206552,2.01258094 6.96973985,1.55677496 C6.61271337,1.7846912 6.43624866,2.00298949 6.291776,2.39547068 C6.12716665,2.84242709 6.13396605,3.18912368 6.32060079,3.60947838 C5.95718171,3.80064504 5.61389931,4.01539291 5.29267136,4.25223821 C5.39387778,4.07567068 5.44987111,3.88736556 5.48221183,3.64076983 C5.54677705,3.14747239 5.46007021,2.80917496 5.16513907,2.40463821 C4.86448366,2.70003906 4.73820084,2.94957581 4.6803769,3.36245872 C4.61584074,3.82343137 4.69173829,4.15669462 4.94994105,4.52034846 C4.64803618,4.7705741 4.36824387,5.04159889 4.11285967,5.33231 C4.16179208,5.15481513 4.17245609,4.97194162 4.15339454,4.74527068 C4.11172643,4.24990658 3.95487537,3.93656812 3.58026925,3.60033735 C3.34903162,3.95074333 3.27859684,4.22028436 3.30983339,4.63610829 C3.34438246,5.09461684 3.48661772,5.4030006 3.80833964,5.70311769 C3.57021544,6.01362111 3.35803937,6.34362538 3.17314806,6.69109034 C3.18535211,6.50312966 3.15690506,6.31869291 3.08841711,6.0955459 C2.94234629,5.61933821 2.72223759,5.34521342 2.28440288,5.09231171 C2.13272401,5.48185188 2.12118828,5.76018949 2.2402068,6.16053991 C2.37285316,6.60688692 2.5804963,6.88074675 2.9672193,7.11038521 C2.79810608,7.48545872 2.65959015,7.87894675 2.55379269,8.28894162 C2.53554473,8.0671194 2.46673715,7.8699647 2.33397456,7.63293393 C2.08977739,7.19713222 1.81614523,6.97337581 1.33411443,6.81506385 C1.26859033,7.22712538 1.31644762,7.50125017 1.51804685,7.8687194 C1.74899391,8.28986897 2.01864523,8.51680487 2.46726018,8.66245188 C2.37837404,9.09671684 2.32531549,9.54809803 2.31038007,10.0145553 C2.25209121,9.7417553 2.13795432,9.53442624 1.92301781,9.29024162 C1.59132925,8.91323393 1.27617427,8.74988778 0.77115919,8.69323991 C0.794579337,9.10946128 0.899766597,9.36816556 1.17505502,9.68651171 C1.49799735,10.0601809 1.81762715,10.2261502 2.30634111,10.2731271 C2.30625394,10.3118109 2.30602148,10.3504416 2.30648639,10.3893374 C2.31139707,10.8082878 2.34016375,11.2083732 2.39069432,11.5904151 C2.27722574,11.3531459 2.12383249,11.1809237 1.87347519,10.9946852 C1.46902727,10.6934818 1.12591921,10.5976468 0.619741837,10.6447297 C0.731292637,11.0471997 0.889160699,11.2788519 1.22607956,11.5342177 C1.61524337,11.8294861 1.95835143,11.928845 2.43430926,11.8808613 C2.50044357,12.2799399 2.59092786,12.6586168 2.70477418,13.0167596 C2.56835037,12.8782134 2.40714072,12.7733698 2.18758411,12.6720767 C1.72781117,12.4595544 1.37185981,12.4358408 0.886836119,12.5845613 C1.08140349,12.9557929 1.28509485,13.1499536 1.66911552,13.3315553 C2.08986456,13.5304852 2.43268205,13.5651151 2.85569756,13.4453279 C2.9884311,13.7883416 3.14365495,14.1110596 3.31907359,14.4144091 C3.18497436,14.3429237 3.03527139,14.29131 2.8514552,14.2489963 C2.35655204,14.1344288 2.00336112,14.1836049 1.56064479,14.4277365 C1.82986025,14.7510638 2.07057055,14.8997844 2.48463642,14.9993553 C2.92061146,15.1039604 3.25398534,15.075451 3.6237389,14.8931074 C3.8299873,15.1884553 4.05741842,15.4627126 4.303853,15.7165946 C4.16446535,15.6787057 4.01441369,15.6603972 3.83626366,15.6563963 C3.32805228,15.6451356 2.9928478,15.7647109 2.61161662,16.0938408 C2.94382821,16.3550621 3.21083532,16.451745 3.6371343,16.4650459 C4.08906177,16.4789562 4.41031878,16.3819288 4.73567286,16.1243374 C5.02461819,16.374457 5.33410701,16.6013134 5.66184378,16.8052775 C5.48872066,16.7832331 5.31184915,16.7936724 5.09909193,16.8329391 C4.59936528,16.9250117 4.29696643,17.1104023 3.99418984,17.5095604 C4.37478176,17.6978656 4.65649184,17.7382715 5.07628199,17.6645604 C5.54050069,17.5828476 5.84002286,17.4114468 6.11237651,17.0652801 C6.45347962,17.2479416 6.81097102,17.4087442 7.18243896,17.5481647 C7.04987976,17.5705271 6.91473447,17.6119664 6.76282315,17.6740989 C6.29366472,17.8661664 6.03732162,18.1086818 5.82590104,18.5606989 C6.23828159,18.6677946 6.52243248,18.649857 6.91729151,18.4923929 C7.33379819,18.3260527 7.58653819,18.1110399 7.77622395,17.7496912 C8.08103455,17.8426382 8.3934872,17.9226553 8.71247774,17.9899015 C8.67104209,18.0155758 8.6288219,18.0435818 8.58538131,18.0740784 C8.17239055,18.3640476 7.97849149,18.6569579 7.87664582,19.1439758 C8.30282857,19.1573297 8.57567619,19.0773391 8.92410172,18.8369168 C9.22324616,18.6308331 9.40889295,18.4165621 9.52262305,18.1318921 C9.85303309,18.1786305 10.1887315,18.2130485 10.528469,18.2353314 C10.6892718,18.2458502 10.8384227,18.2721604 10.9790307,18.3104997 C10.3239349,18.7062134 9.74549219,19.2573245 9.12262088,19.6185408 L9.61964522,19.821445 C10.3135325,19.4193459 10.8009388,18.8341613 11.4494386,18.4960493 C12.1003211,18.8337638 12.5883958,19.4208297 13.2839103,19.8239091 L13.7810508,19.6210314 C13.156378,19.2588083 12.5763661,18.7055775 11.9189458,18.3095989 C12.0612391,18.2704117 12.2122206,18.2434921 12.3751737,18.2328143 C12.7148821,18.2105314 13.0506096,18.1761399 13.3810196,18.129375 C13.4947497,18.414098 13.6804256,18.6284485 13.9794538,18.8348502 C14.3279665,19.0748485 14.6006979,19.1548391 15.0271131,19.1414852 C14.9251802,18.6544408 14.7312521,18.361557 14.3182614,18.0715878 C14.2748208,18.0410912 14.2326006,18.0130852 14.1911359,17.9874374 C14.5100683,17.9201647 14.8224919,17.8401476 15.1272734,17.7472271 C15.3169301,18.1084433 15.5697573,18.3235621 15.9862349,18.4898758 C16.381123,18.6473399 16.6653611,18.6652775 17.0776254,18.5582083 C16.866321,18.1061647 16.6099779,17.8636758 16.1408486,17.6716348 C15.9889082,17.6094758 15.8537629,17.5680365 15.7211747,17.5457006 C16.0926717,17.4062536 16.4501631,17.245451 16.7912952,17.062763 C17.0636489,17.4089826 17.3630548,17.5803835 17.8273897,17.6620433 C18.2471799,17.7357809 18.52889,17.695375 18.9094528,17.5070433 C18.60656,17.1079117 18.3042774,16.9225211 17.8045798,16.8304485 C17.5917935,16.7912083 17.4149511,16.7807425 17.2418861,16.8027869 C17.5695938,16.5988228 17.8790826,16.3719664 18.1679989,16.1218732 C18.4932658,16.3794647 18.8146099,16.4764656 19.2663921,16.4625818 C19.6927202,16.4492279 19.9596982,16.3525715 20.2919389,16.0913502 C19.9108239,15.7622203 19.5755904,15.642645 19.0672918,15.6538792 C18.8891999,15.6578801 18.7392354,15.6761886 18.5999059,15.7140245 C18.8463405,15.4601955 19.0737425,15.1859382 19.2799909,14.8906168 C19.6497154,15.0729339 19.9830312,15.1014433 20.4189191,14.9968382 C20.8330721,14.8972938 21.0737824,14.7485468 21.3430269,14.4252459 C20.9003397,14.1810878 20.5470325,14.1319117 20.0521003,14.2465322 C19.8684003,14.2888194 19.7187555,14.3403801 19.5847144,14.4118391 C19.760133,14.108516 19.9153278,13.7858245 20.0480323,13.4428638 C20.4709316,13.5626245 20.8138362,13.5279681 21.2345562,13.3290912 C21.6185769,13.1474365 21.822152,12.9532758 22.0168356,12.5820707 C21.531841,12.4333237 21.1758606,12.4570903 20.7160876,12.6695596" id="Fill-12" fill="#E4E4E3"></path>
                <polygon id="Fill-14" fill="#FEFEFE" points="13.2367533 2.7425647 13.3527789 4.24805188 14.9588605 3.88347068 13.4244922 4.44931342 14.3010624 5.72945444 13.2367533 4.57368436 12.1724441 5.72945444 13.0490143 4.44931342 11.514646 3.88347068 13.1207276 4.24805188"></polygon>
            </g>
        </g>
    </g>
</svg>